<?xml version="1.0" encoding="utf-8"?>
<!-- Generator: Adobe Illustrator 26.5.0, SVG Export Plug-In . SVG Version: 6.00 Build 0)  -->
<svg version="1.0" id="katman_1" xmlns="http://www.w3.org/2000/svg" xmlns:xlink="http://www.w3.org/1999/xlink" x="0px" y="0px"
	 viewBox="0 0 1190.55 841.89" style="enable-background:new 0 0 1190.55 841.89;" xml:space="preserve">
<style type="text/css">
	.st0{fill:#501644;}
	.st1{fill:#E50046;}
	.st2{fill:#4B4445;}
	.st3{fill:#FFFFFF;}
</style>
<g>
	<path class="st0" d="M614.11,363.05c4.24-1.95,8.95-2.17,13.35-0.56c4.36,1.58,7.83,4.77,9.81,9.01l2.51,5.36
		c1.08-2.79,1.67-5.79,1.67-8.95c0-13.53-10.99-24.52-24.52-24.52c-13.5,0-24.49,10.99-24.49,24.52c0,10.26,6.35,19.09,15.3,22.7
		l-2.04-4.4C601.62,377.51,605.41,367.11,614.11,363.05"/>
	<path class="st0" d="M726.1,402.9l-4.58-10.13c-0.9-1.92-2.54-3.4-4.58-4.14c-2.05-0.74-4.24-0.66-6.19,0.28
		c-4.05,1.89-5.82,6.72-3.96,10.78l3.96,8.51l5.05,10.81c1.08,2.32,0.09,5.08-2.23,6.16c-2.35,1.08-5.11,0.09-6.19-2.23l-0.93-2.04
		h-0.03l-5.05-10.87l-2.97-6.38l-0.03-0.03l-2.6-5.61c-1.89-4.06-6.72-5.82-10.8-3.93c-4.06,1.92-5.82,6.76-3.93,10.82l4.73,10.18
		h0.04l6.84,14.74c1.08,2.32,0.09,5.08-2.23,6.16l-1.98,0.43c-1.73,0-3.41-0.99-4.21-2.69l-11.61-24.89v-0.03l-2.6-5.57
		c-0.93-1.98-2.54-3.47-4.58-4.21c-2.04-0.74-4.24-0.64-6.23,0.28c-1.98,0.92-3.47,2.53-4.21,4.58c-0.75,2.04-0.65,4.24,0.28,6.19
		l14.24,30.53c1.08,2.32,0.06,5.11-2.26,6.2c-2.32,1.08-5.08,0.05-6.16-2.27l-6.88-14.74l-7.37-15.8l-9.07-19.48l-4.09-8.73
		l-4.83-10.37c-0.93-1.95-2.54-3.44-4.58-4.18c-2.05-0.74-4.24-0.64-6.23,0.25c-4.05,1.92-5.82,6.75-3.93,10.8l4.67,10.06l4.12,8.8
		l33.56,71.99l0.09,0.28l0.1,0.24l0.25,1.53v0.21l-0.37,1.52l-0.09,0.19l-0.93,1.33l-0.06,0.07l-0.1,0.06l-1.11,0.77l-0.25,0.1
		l-0.27,0.06l-1.43,0.28l-0.13-0.03l-0.28-0.03l-1.27-0.28l-0.43-0.22l-1.18-0.83l-0.13-0.1l-16.59-17.77
		c-1.52-1.74-3.5-2.7-5.67-2.82c-2.14-0.16-4.24,0.59-5.88,2.01c-1.61,1.45-2.6,3.44-2.73,5.61c-0.12,2.17,0.59,4.24,2.02,5.88
		l12.38,13.01l19.82,21.15l3.78,0.84h78.84L726.1,402.9z"/>
	<path class="st1" d="M709.23,203.52H480.77l-25.61,302.65h185.08l-27.06-28.74c-3.19-3.59-4.73-8.08-4.43-12.72
		c0.28-4.64,2.35-8.88,5.82-11.95c3.5-3.1,7.96-4.64,12.61-4.34c3.31,0.18,6.41,1.33,9.01,3.22l-23.41-50.22
		c-16.69-2.04-29.63-16.26-29.63-33.51c0-18.64,15.14-33.81,33.78-33.81c18.64,0,33.82,15.17,33.82,33.81
		c0,7.19-2.26,13.88-6.1,19.35l4.12,8.86c1.64-2.2,3.84-4.02,6.5-5.26c6.1-2.84,13-1.82,18.02,2.01c1.7-3.03,4.33-5.61,7.77-7.18
		c6.07-2.85,13.01-1.83,17.99,2c1.7-3.07,4.37-5.63,7.77-7.21c5.88-2.76,12.57-1.89,17.53,1.64L709.23,203.52z M531.94,238.49
		c-4.92,0-8.9-3.99-8.9-8.91c0-4.92,3.99-8.91,8.9-8.91c4.92,0,8.9,3.99,8.9,8.91C540.85,234.5,536.86,238.49,531.94,238.49z
		 M658.06,238.49c-4.92,0-8.9-3.99-8.9-8.91c0-4.92,3.98-8.91,8.9-8.91s8.9,3.99,8.9,8.91C666.96,234.5,662.97,238.49,658.06,238.49
		z"/>
	<path class="st2" d="M658.04,233.64c-3.23,0-5.85-2.63-5.85-5.86v-34.74c0-31.52-25.25-57.54-56.29-58.01l-0.89-0.01
		c-31.52,0-57.18,25.66-57.18,57.18v35.58c0,3.23-2.63,5.86-5.85,5.86c-3.23,0-5.85-2.63-5.85-5.86V193.1
		c0-38.11,30.59-69.41,68.21-69.78h0.68c37.99,0,68.89,30.89,68.89,68.88v35.58C663.9,231.01,661.27,233.64,658.04,233.64"/>
	<path class="st3" d="M717.64,502.85c-0.76,0-1.25-0.22-1.49-0.7c-0.25-0.58-0.7-0.86-1.31-0.86c-0.25,0-0.69-0.15-1.27-0.43
		c-0.58-0.3-1.16-0.67-1.74-1.15c-1.46-1.04-2.49-1.57-3.1-1.57c-0.61,0-1.04-0.27-1.31-0.79v-0.14c0-0.61,0.63-2.33,1.88-5.14
		c1.37-3.06,2.25-4.59,2.62-4.59c0.15,0,0.67,0.22,1.56,0.67c0.91,0.46,1.94,1,3.1,1.64c1.18,0.64,2.25,1.27,3.26,1.86
		c1,0.6,1.71,1.06,2.16,1.37c0.43,0.33,0.86,0.66,1.31,1.01l-3.5,7.86C719.42,502.54,718.68,502.85,717.64,502.85"/>
	<path d="M606.87,532.16c0.61,0,0.91-0.39,0.91-1.13c0-0.24-0.04-0.52-0.12-0.84c-0.21-0.52-0.37-0.79-0.49-0.79
		c-0.16,0-0.46,0.3-0.86,0.88c-0.36,0.46-0.52,0.83-0.52,1.13c0,0.22,0.12,0.42,0.39,0.54
		C606.44,532.08,606.66,532.16,606.87,532.16"/>
	<path d="M605.74,547.62c0.13,0,0.21-0.85,0.21-2.53c0-1.68-0.07-2.53-0.21-2.53c-0.09,0-0.13,0.85-0.13,2.53
		C605.6,546.77,605.65,547.62,605.74,547.62"/>
</g>
<g>
	<path d="M200.11,637.44c-7.37,0-14.02-1.63-19.94-4.9c-5.92-3.26-10.6-8.02-14.03-14.28c-3.43-6.25-5.14-13.87-5.14-22.86
		c0-9.02,1.71-16.68,5.14-22.97c3.43-6.29,8.1-11.06,14.03-14.3c5.92-3.25,12.57-4.87,19.94-4.87c7.33,0,13.95,1.62,19.86,4.87
		c5.9,3.25,10.58,8.01,14.03,14.3c3.45,6.29,5.17,13.95,5.17,22.97c0,8.99-1.72,16.61-5.17,22.89c-3.45,6.27-8.12,11.03-14.03,14.28
		C214.07,635.82,207.45,637.44,200.11,637.44z M200.11,620.11c3.92,0,7.3-0.95,10.12-2.86c2.82-1.91,4.99-4.69,6.49-8.36
		c1.5-3.67,2.26-8.16,2.26-13.48c0-5.35-0.75-9.87-2.26-13.56c-1.5-3.69-3.67-6.48-6.49-8.39c-2.82-1.91-6.2-2.86-10.12-2.86
		s-7.3,0.95-10.12,2.86c-2.82,1.91-5,4.7-6.52,8.39c-1.52,3.69-2.28,8.21-2.28,13.56c0,5.32,0.76,9.81,2.28,13.48
		c1.52,3.67,3.69,6.46,6.52,8.36C192.82,619.16,196.19,620.11,200.11,620.11z"/>
	<path d="M267.12,601.3v35.04h-19.58v-61.51h19.36v11.33h0.5c1.39-3.74,3.62-6.69,6.68-8.86c3.06-2.16,6.87-3.25,11.41-3.25
		c4.33,0,8.09,0.96,11.28,2.89s5.67,4.62,7.43,8.09c1.76,3.47,2.64,7.51,2.64,12.13v39.17h-19.58v-35.32c0-3.41-0.86-6.08-2.59-8
		c-1.72-1.93-4.15-2.89-7.26-2.89c-2.05,0-3.85,0.44-5.39,1.32c-1.54,0.88-2.74,2.15-3.6,3.82
		C267.55,596.95,267.12,598.95,267.12,601.3z"/>
	<path d="M335.67,554.37v81.97h-19.58v-81.97H335.67z"/>
	<path d="M354.65,567.8c-2.75,0-5.12-0.92-7.1-2.75c-1.98-1.83-2.97-4.05-2.97-6.66c0-2.6,0.99-4.81,2.97-6.63
		c1.98-1.81,4.35-2.72,7.1-2.72c2.79,0,5.16,0.91,7.12,2.72c1.96,1.82,2.94,4.03,2.94,6.63c0,2.6-0.98,4.82-2.94,6.66
		C359.81,566.88,357.43,567.8,354.65,567.8z M344.91,636.34v-61.51h19.58v61.51H344.91z"/>
	<path d="M393.32,601.3v35.04h-19.58v-61.51h19.36v11.33h0.5c1.39-3.74,3.62-6.69,6.68-8.86c3.06-2.16,6.87-3.25,11.41-3.25
		c4.33,0,8.09,0.96,11.28,2.89c3.19,1.93,5.67,4.62,7.43,8.09c1.76,3.47,2.64,7.51,2.64,12.13v39.17h-19.58v-35.32
		c0-3.41-0.86-6.08-2.59-8c-1.72-1.93-4.15-2.89-7.26-2.89c-2.05,0-3.85,0.44-5.39,1.32c-1.54,0.88-2.74,2.15-3.6,3.82
		C393.75,596.95,393.32,598.95,393.32,601.3z"/>
	<path d="M471.06,637.5c-6.46,0-12.01-1.27-16.67-3.82c-4.66-2.55-8.22-6.19-10.7-10.92c-2.48-4.73-3.71-10.38-3.71-16.94
		c0-6.34,1.25-11.89,3.74-16.64c2.49-4.75,6.01-8.45,10.56-11.11c4.55-2.66,9.9-3.99,16.06-3.99c4.36,0,8.37,0.69,12.02,2.06
		c3.65,1.38,6.8,3.39,9.46,6.05c2.66,2.66,4.71,5.93,6.16,9.82c1.45,3.89,2.17,8.38,2.17,13.48v4.84h-53.42v-11.28h44.12l-9.13,2.64
		c0-2.82-0.42-5.24-1.27-7.23c-0.84-2-2.09-3.55-3.74-4.65c-1.65-1.1-3.71-1.65-6.16-1.65c-2.46,0-4.53,0.55-6.22,1.65
		c-1.69,1.1-2.97,2.63-3.85,4.59c-0.88,1.96-1.32,4.28-1.32,6.96v8.09c0,2.86,0.5,5.34,1.51,7.43c1.01,2.09,2.44,3.7,4.29,4.81
		c1.85,1.12,3.99,1.68,6.41,1.68c1.69,0,3.23-0.24,4.62-0.72c1.39-0.48,2.59-1.18,3.58-2.12c0.99-0.93,1.74-2.06,2.26-3.38
		l17.93,0.49c-0.73,4.03-2.35,7.54-4.84,10.51c-2.5,2.97-5.76,5.27-9.79,6.9C481.1,636.68,476.41,637.5,471.06,637.5z"/>
	<path d="M559.85,637.44c-6.86,0-12.84-1.04-17.93-3.11c-5.1-2.07-9.07-5.21-11.91-9.41c-2.84-4.2-4.3-9.49-4.37-15.87h18.92
		c0.18,2.6,0.91,4.8,2.17,6.57c1.27,1.78,2.99,3.13,5.17,4.04c2.18,0.92,4.74,1.38,7.68,1.38c2.68,0,4.96-0.37,6.85-1.1
		c1.89-0.73,3.35-1.74,4.37-3.03c1.03-1.28,1.54-2.77,1.54-4.46c0-1.54-0.48-2.85-1.43-3.93c-0.95-1.08-2.39-2.04-4.32-2.86
		c-1.93-0.83-4.39-1.57-7.4-2.23l-8.64-1.98c-7.04-1.61-12.6-4.24-16.67-7.9c-4.07-3.65-6.11-8.61-6.11-14.88
		c0-5.06,1.38-9.5,4.13-13.31c2.75-3.81,6.54-6.78,11.36-8.91c4.82-2.13,10.35-3.19,16.59-3.19c6.34,0,11.86,1.07,16.56,3.22
		c4.69,2.15,8.33,5.15,10.89,9.02c2.57,3.87,3.89,8.35,3.96,13.45h-19.04c-0.22-2.93-1.38-5.22-3.49-6.85
		c-2.11-1.63-5.09-2.45-8.94-2.45c-2.57,0-4.7,0.33-6.41,0.99c-1.7,0.66-2.99,1.58-3.85,2.75c-0.86,1.17-1.29,2.5-1.29,3.96
		c0,1.61,0.48,2.99,1.43,4.13c0.95,1.14,2.34,2.09,4.15,2.86c1.81,0.77,3.95,1.43,6.41,1.98l6.99,1.6
		c4.03,0.88,7.61,2.05,10.73,3.52c3.12,1.47,5.75,3.21,7.89,5.23c2.15,2.02,3.77,4.35,4.87,6.99c1.1,2.64,1.65,5.59,1.65,8.86
		c0,5.21-1.29,9.67-3.88,13.4c-2.59,3.72-6.3,6.57-11.14,8.55S566.67,637.44,559.85,637.44z"/>
	<path d="M618.82,601.3v35.04h-19.58v-81.97h18.87v31.8h0.71c1.39-3.78,3.67-6.74,6.82-8.88c3.15-2.15,7.04-3.22,11.66-3.22
		c4.29,0,8.04,0.96,11.25,2.89c3.21,1.93,5.69,4.61,7.45,8.06c1.76,3.45,2.64,7.5,2.64,12.16v39.17h-19.59v-35.32
		c0-3.41-0.86-6.08-2.59-8c-1.72-1.93-4.16-2.89-7.32-2.89c-2.05,0-3.86,0.44-5.42,1.32c-1.56,0.88-2.77,2.15-3.63,3.82
		C619.25,596.95,618.82,598.95,618.82,601.3z"/>
	<path d="M696.61,637.5c-6.46,0-11.99-1.33-16.62-3.99c-4.62-2.66-8.17-6.36-10.64-11.11c-2.48-4.75-3.71-10.28-3.71-16.59
		c0-6.34,1.24-11.89,3.71-16.64c2.47-4.75,6.02-8.45,10.64-11.11c4.62-2.66,10.16-3.99,16.62-3.99c6.45,0,12,1.33,16.64,3.99
		c4.64,2.66,8.2,6.36,10.67,11.11c2.47,4.75,3.71,10.3,3.71,16.64c0,6.31-1.24,11.84-3.71,16.59c-2.48,4.75-6.03,8.45-10.67,11.11
		C708.61,636.17,703.06,637.5,696.61,637.5z M696.72,622.59c2.38,0,4.38-0.7,6-2.09c1.61-1.39,2.85-3.36,3.71-5.91
		c0.86-2.55,1.29-5.51,1.29-8.88c0-3.41-0.43-6.36-1.29-8.86c-0.86-2.49-2.1-4.43-3.71-5.8c-1.61-1.38-3.61-2.06-6-2.06
		c-2.38,0-4.42,0.69-6.11,2.06c-1.69,1.37-2.95,3.31-3.8,5.8c-0.85,2.49-1.26,5.45-1.26,8.86c0,3.37,0.42,6.34,1.26,8.88
		c0.84,2.55,2.11,4.52,3.8,5.91C692.3,621.89,694.34,622.59,696.72,622.59z"/>
	<path d="M734.57,659.34v-84.5h19.37v10.56h0.66c0.77-1.87,1.9-3.68,3.38-5.42c1.49-1.74,3.37-3.16,5.67-4.26
		c2.29-1.1,5.07-1.65,8.34-1.65c4.29,0,8.29,1.13,11.99,3.38c3.7,2.26,6.7,5.71,8.99,10.37c2.29,4.66,3.44,10.6,3.44,17.82
		c0,6.97-1.1,12.8-3.3,17.49c-2.2,4.7-5.16,8.22-8.89,10.56c-3.72,2.35-7.86,3.52-12.41,3.52c-3.08,0-5.76-0.51-8.03-1.54
		c-2.28-1.03-4.17-2.37-5.69-4.02c-1.52-1.65-2.69-3.43-3.49-5.34h-0.44v33.01H734.57z M765.05,621.99c2.42,0,4.47-0.68,6.13-2.04
		c1.67-1.36,2.93-3.26,3.8-5.72c0.86-2.46,1.29-5.32,1.29-8.58c0-3.3-0.43-6.17-1.29-8.61c-0.86-2.44-2.12-4.34-3.77-5.69
		c-1.65-1.36-3.7-2.04-6.16-2.04c-2.38,0-4.42,0.66-6.11,1.98c-1.69,1.32-2.98,3.2-3.88,5.64c-0.9,2.44-1.35,5.35-1.35,8.72
		c0,3.3,0.45,6.17,1.35,8.61c0.9,2.44,2.19,4.34,3.88,5.69C760.63,621.31,762.66,621.99,765.05,621.99z"/>
	<path d="M803.28,659.34v-84.5h19.37v10.56h0.66c0.77-1.87,1.9-3.68,3.38-5.42c1.49-1.74,3.37-3.16,5.67-4.26
		c2.29-1.1,5.07-1.65,8.34-1.65c4.29,0,8.29,1.13,11.99,3.38c3.7,2.26,6.7,5.71,8.99,10.37c2.29,4.66,3.44,10.6,3.44,17.82
		c0,6.97-1.1,12.8-3.3,17.49c-2.2,4.7-5.16,8.22-8.89,10.56c-3.72,2.35-7.86,3.52-12.41,3.52c-3.08,0-5.76-0.51-8.03-1.54
		c-2.28-1.03-4.17-2.37-5.69-4.02c-1.52-1.65-2.69-3.43-3.49-5.34h-0.44v33.01H803.28z M833.76,621.99c2.42,0,4.47-0.68,6.13-2.04
		c1.67-1.36,2.93-3.26,3.8-5.72c0.86-2.46,1.29-5.32,1.29-8.58c0-3.3-0.43-6.17-1.29-8.61c-0.86-2.44-2.12-4.34-3.77-5.69
		c-1.65-1.36-3.7-2.04-6.16-2.04c-2.38,0-4.42,0.66-6.11,1.98c-1.69,1.32-2.98,3.2-3.88,5.64c-0.9,2.44-1.35,5.35-1.35,8.72
		c0,3.3,0.45,6.17,1.35,8.61c0.9,2.44,2.19,4.34,3.88,5.69C829.34,621.31,831.37,621.99,833.76,621.99z"/>
	<path d="M881.73,567.8c-2.75,0-5.12-0.92-7.1-2.75c-1.98-1.83-2.97-4.05-2.97-6.66c0-2.6,0.99-4.81,2.97-6.63
		c1.98-1.81,4.35-2.72,7.1-2.72c2.79,0,5.16,0.91,7.13,2.72c1.96,1.82,2.94,4.03,2.94,6.63c0,2.6-0.98,4.82-2.94,6.66
		C886.89,566.88,884.52,567.8,881.73,567.8z M871.99,636.34v-61.51h19.58v61.51H871.99z"/>
	<path d="M920.4,601.3v35.04h-19.58v-61.51h19.37v11.33h0.49c1.39-3.74,3.62-6.69,6.68-8.86c3.06-2.16,6.87-3.25,11.42-3.25
		c4.33,0,8.09,0.96,11.28,2.89s5.67,4.62,7.43,8.09c1.76,3.47,2.64,7.51,2.64,12.13v39.17h-19.58v-35.32c0-3.41-0.86-6.08-2.59-8
		c-1.73-1.93-4.15-2.89-7.26-2.89c-2.05,0-3.85,0.44-5.39,1.32c-1.54,0.88-2.74,2.15-3.6,3.82
		C920.84,596.95,920.4,598.95,920.4,601.3z"/>
	<path d="M997.86,660.66c-8.77,0-15.62-1.78-20.58-5.34c-4.95-3.56-7.78-8.03-8.47-13.42l18.49-1.05c0.33,1.28,0.96,2.39,1.9,3.33
		c0.93,0.93,2.17,1.66,3.71,2.17c1.54,0.51,3.36,0.77,5.45,0.77c3.3,0,6.02-0.8,8.17-2.39s3.22-4.36,3.22-8.28v-10.84h-0.71
		c-0.77,1.87-1.95,3.56-3.52,5.06c-1.58,1.5-3.53,2.69-5.86,3.55c-2.33,0.86-5.02,1.29-8.06,1.29c-4.47,0-8.57-1.05-12.29-3.14
		c-3.72-2.09-6.69-5.35-8.91-9.77c-2.22-4.42-3.33-10.09-3.33-17.03c0-7.22,1.15-13.16,3.44-17.8c2.29-4.64,5.31-8.09,9.05-10.34
		c3.74-2.26,7.76-3.38,12.05-3.38c3.23,0,6,0.55,8.31,1.65c2.31,1.1,4.24,2.52,5.78,4.26c1.54,1.74,2.7,3.55,3.47,5.42h0.55v-10.56
		H1029v61.78c0,5.17-1.31,9.55-3.93,13.15c-2.62,3.59-6.27,6.31-10.95,8.14C1009.44,659.74,1004.02,660.66,997.86,660.66z
		 M998.41,621.27c3.56,0,6.33-1.39,8.34-4.18c2-2.79,3-6.64,3-11.55c0-3.34-0.45-6.22-1.35-8.64c-0.9-2.42-2.19-4.29-3.88-5.61
		c-1.69-1.32-3.72-1.98-6.11-1.98c-2.42,0-4.47,0.68-6.16,2.04c-1.69,1.36-2.96,3.25-3.82,5.67c-0.86,2.42-1.29,5.26-1.29,8.53
		s0.44,6.07,1.32,8.42c0.88,2.35,2.15,4.15,3.82,5.42C993.95,620.64,995.99,621.27,998.41,621.27z"/>
</g>
<g>
	<path d="M369.31,661.11h4.6l12.94,20.7h0.41l12.88-20.7h4.63l-15.75,24.74v18.89h-3.98v-18.89L369.31,661.11z"/>
	<path d="M417.72,705.44c-2.83,0-5.33-0.72-7.5-2.15c-2.17-1.44-3.86-3.43-5.08-5.97c-1.22-2.55-1.83-5.47-1.83-8.77
		c0-3.36,0.61-6.31,1.83-8.86c1.22-2.55,2.91-4.54,5.08-5.97c2.17-1.43,4.67-2.15,7.5-2.15c2.83,0,5.32,0.72,7.48,2.15
		c2.16,1.44,3.85,3.43,5.08,5.97c1.23,2.55,1.85,5.5,1.85,8.86c0,3.3-0.61,6.22-1.83,8.77c-1.22,2.55-2.91,4.54-5.08,5.97
		C423.05,704.72,420.55,705.44,417.72,705.44z M417.72,701.99c2.28,0,4.21-0.61,5.78-1.83c1.57-1.22,2.77-2.86,3.59-4.91
		c0.82-2.05,1.23-4.28,1.23-6.71c0-2.46-0.41-4.71-1.23-6.76c-0.82-2.05-2.02-3.69-3.6-4.92c-1.58-1.23-3.5-1.84-5.77-1.84
		c-2.26,0-4.18,0.62-5.75,1.86c-1.57,1.24-2.77,2.88-3.6,4.92c-0.83,2.04-1.24,4.29-1.24,6.75c0,2.42,0.41,4.66,1.23,6.71
		c0.82,2.05,2.02,3.69,3.6,4.91C413.53,701.38,415.45,701.99,417.72,701.99z"/>
	<path d="M459.35,692.26V672h3.78v32.74h-3.78v-5.45h-0.29c-0.78,1.68-2,3.08-3.66,4.2c-1.66,1.12-3.69,1.67-6.09,1.65
		c-2.09,0-3.94-0.45-5.55-1.36c-1.61-0.91-2.88-2.26-3.81-4.04c-0.93-1.79-1.39-3.97-1.39-6.54V672h3.78V693
		c0,2.54,0.76,4.59,2.27,6.15c1.51,1.56,3.44,2.33,5.78,2.31c1.48,0,2.91-0.35,4.28-1.05c1.37-0.7,2.49-1.74,3.37-3.1
		C458.91,695.93,459.35,694.26,459.35,692.26z"/>
	<path d="M471.27,704.74V672h3.66v5.07h0.29c0.66-1.66,1.81-2.99,3.44-4c1.63-1.01,3.47-1.51,5.52-1.51c0.31,0,0.66,0,1.04,0
		s0.7,0.01,0.95,0.03v3.84c-0.16-0.02-0.45-0.05-0.88-0.1c-0.43-0.05-0.91-0.07-1.43-0.07c-1.68,0-3.19,0.36-4.52,1.08
		c-1.34,0.72-2.39,1.71-3.15,2.97c-0.76,1.26-1.14,2.7-1.14,4.32v21.11H471.27z"/>
	<path d="M519.56,705.47c-2.97,0-5.54-0.49-7.73-1.46c-2.19-0.98-3.91-2.34-5.15-4.1c-1.25-1.76-1.95-3.79-2.11-6.09h4.07
		c0.16,1.74,0.73,3.2,1.71,4.39c0.99,1.19,2.28,2.09,3.88,2.71c1.6,0.61,3.38,0.92,5.33,0.92c2.19,0,4.13-0.37,5.83-1.1
		c1.7-0.73,3.03-1.75,4-3.06c0.97-1.31,1.45-2.84,1.45-4.6c0-1.48-0.39-2.72-1.16-3.72c-0.77-1-1.84-1.84-3.21-2.52
		c-1.37-0.68-2.95-1.29-4.77-1.82l-5.18-1.52c-3.42-1-6.07-2.4-7.97-4.22c-1.89-1.82-2.84-4.12-2.84-6.91
		c0-2.34,0.63-4.41,1.89-6.19c1.26-1.79,2.96-3.18,5.11-4.19c2.15-1.01,4.56-1.51,7.23-1.51c2.71,0,5.11,0.5,7.2,1.51
		c2.09,1.01,3.75,2.37,4.98,4.1c1.23,1.73,1.89,3.69,1.99,5.9h-3.9c-0.23-2.42-1.3-4.35-3.19-5.78c-1.89-1.43-4.29-2.15-7.2-2.15
		c-2.01,0-3.79,0.35-5.33,1.05c-1.54,0.7-2.75,1.67-3.62,2.9c-0.87,1.23-1.3,2.63-1.3,4.19c0,1.52,0.43,2.8,1.29,3.82
		c0.86,1.02,1.95,1.86,3.28,2.5c1.33,0.64,2.7,1.18,4.1,1.61l4.6,1.32c1.39,0.41,2.77,0.91,4.16,1.51c1.39,0.6,2.66,1.34,3.82,2.24
		c1.16,0.9,2.1,2,2.81,3.29c0.71,1.3,1.07,2.86,1.07,4.67c0,2.3-0.61,4.39-1.82,6.25c-1.21,1.86-2.94,3.34-5.2,4.42
		C525.43,704.93,522.72,705.47,519.56,705.47z"/>
	<path d="M545.41,661.11v43.63h-3.78v-43.63H545.41z"/>
	<path d="M566.26,705.44c-2.83,0-5.33-0.72-7.5-2.15c-2.17-1.44-3.86-3.43-5.08-5.97c-1.22-2.55-1.83-5.47-1.83-8.77
		c0-3.36,0.61-6.31,1.83-8.86c1.22-2.55,2.91-4.54,5.08-5.97c2.17-1.43,4.67-2.15,7.5-2.15c2.83,0,5.33,0.72,7.48,2.15
		c2.16,1.44,3.85,3.43,5.08,5.97s1.84,5.5,1.84,8.86c0,3.3-0.61,6.22-1.83,8.77c-1.22,2.55-2.91,4.54-5.08,5.97
		C571.59,704.72,569.09,705.44,566.26,705.44z M566.26,701.99c2.29,0,4.21-0.61,5.78-1.83c1.57-1.22,2.77-2.86,3.59-4.91
		c0.82-2.05,1.23-4.28,1.23-6.71c0-2.46-0.41-4.71-1.23-6.76c-0.82-2.05-2.02-3.69-3.6-4.92c-1.58-1.23-3.5-1.84-5.77-1.84
		c-2.26,0-4.18,0.62-5.75,1.86c-1.57,1.24-2.77,2.88-3.6,4.92c-0.83,2.04-1.25,4.29-1.25,6.75c0,2.42,0.41,4.66,1.23,6.71
		c0.82,2.05,2.02,3.69,3.6,4.91C562.07,701.38,564,701.99,566.26,701.99z"/>
	<path d="M599.58,717.68c-3.34,0-6.06-0.63-8.17-1.87c-2.11-1.25-3.64-2.81-4.6-4.68l3.1-2.05c0.45,0.84,1.07,1.65,1.87,2.45
		c0.8,0.79,1.83,1.44,3.1,1.96c1.27,0.52,2.83,0.78,4.68,0.78c2.91,0,5.26-0.72,7.04-2.17c1.79-1.45,2.68-3.69,2.68-6.73v-7.38
		h-0.38c-0.43,1-1.06,1.99-1.88,2.97s-1.89,1.81-3.22,2.46c-1.33,0.65-2.98,0.98-4.95,0.98c-2.62,0-4.93-0.64-6.95-1.93
		c-2.02-1.29-3.61-3.14-4.77-5.55c-1.16-2.41-1.74-5.28-1.74-8.59c0-3.32,0.57-6.23,1.7-8.74c1.13-2.51,2.71-4.47,4.74-5.89
		c2.03-1.41,4.39-2.12,7.09-2.12c2.01,0,3.68,0.36,5.01,1.07c1.33,0.71,2.39,1.59,3.19,2.62c0.8,1.03,1.42,2.04,1.88,3.02h0.41V672
		h3.63v33.59c0,2.77-0.58,5.05-1.74,6.84c-1.16,1.79-2.76,3.11-4.79,3.97C604.49,717.25,602.18,717.68,599.58,717.68z
		 M599.35,700.93c3.14,0,5.59-1.13,7.35-3.4c1.76-2.26,2.64-5.37,2.64-9.31c0-2.56-0.39-4.83-1.16-6.81
		c-0.77-1.98-1.9-3.54-3.4-4.68c-1.49-1.14-3.31-1.71-5.43-1.71c-2.21,0-4.06,0.59-5.56,1.77c-1.5,1.18-2.64,2.77-3.41,4.76
		c-0.77,1.99-1.16,4.22-1.16,6.68c0,2.5,0.39,4.71,1.17,6.62c0.78,1.91,1.93,3.41,3.44,4.48
		C595.34,700.4,597.18,700.93,599.35,700.93z"/>
	<path d="M630.36,705.47c-1.97,0-3.78-0.39-5.42-1.16c-1.64-0.77-2.94-1.89-3.91-3.37c-0.97-1.47-1.45-3.26-1.45-5.37
		c0-1.62,0.3-2.98,0.91-4.07c0.6-1.09,1.48-2,2.61-2.71c1.13-0.71,2.46-1.28,4-1.7c1.53-0.42,3.23-0.74,5.08-0.95
		c1.83-0.23,3.39-0.43,4.66-0.6c1.27-0.17,2.23-0.43,2.9-0.81c0.66-0.37,1-0.97,1-1.79v-0.76c0-2.25-0.66-4.01-1.99-5.29
		c-1.33-1.28-3.23-1.92-5.71-1.92c-2.36,0-4.29,0.52-5.77,1.55c-1.48,1.04-2.52,2.26-3.1,3.66l-3.63-1.32
		c0.74-1.78,1.77-3.2,3.08-4.27s2.77-1.85,4.39-2.33c1.62-0.48,3.26-0.72,4.92-0.72c1.25,0,2.55,0.17,3.9,0.5
		c1.35,0.33,2.61,0.9,3.78,1.7c1.17,0.8,2.12,1.92,2.86,3.35c0.73,1.44,1.1,3.25,1.1,5.43v22.2h-3.81v-5.18h-0.23
		c-0.43,0.96-1.09,1.89-1.99,2.8c-0.9,0.91-2.02,1.65-3.37,2.24C633.78,705.18,632.19,705.47,630.36,705.47z M630.88,702.01
		c2.01,0,3.75-0.44,5.23-1.33c1.47-0.89,2.61-2.08,3.41-3.59c0.8-1.5,1.2-3.14,1.2-4.92v-4.71c-0.29,0.27-0.77,0.52-1.42,0.73
		c-0.66,0.22-1.41,0.4-2.26,0.56c-0.85,0.16-1.71,0.29-2.58,0.41c-0.87,0.12-1.64,0.21-2.3,0.29c-1.83,0.23-3.41,0.6-4.73,1.08
		c-1.32,0.49-2.32,1.15-3.02,1.99c-0.69,0.84-1.04,1.92-1.04,3.25c0,1.97,0.71,3.51,2.12,4.6
		C626.93,701.47,628.72,702.01,630.88,702.01z"/>
	<path d="M656.45,684.3v20.44h-3.78V672h3.66v5.18h0.38c0.76-1.7,1.95-3.05,3.57-4.07c1.62-1.01,3.63-1.52,6.03-1.52
		c2.21,0,4.15,0.46,5.81,1.38c1.67,0.92,2.97,2.26,3.91,4.04c0.94,1.78,1.41,3.96,1.41,6.56v21.17h-3.78V683.8
		c0-2.67-0.75-4.8-2.26-6.38c-1.5-1.58-3.51-2.37-6.03-2.37c-1.72,0-3.25,0.38-4.6,1.13s-2.41,1.82-3.18,3.19
		C656.83,680.74,656.45,682.39,656.45,684.3z"/>
	<path d="M701.34,704.74v-43.63h3.98v20h24.77v-20h3.95v43.63h-3.95v-20.06h-24.77v20.06H701.34z"/>
	<path d="M756.18,705.44c-3.04,0-5.69-0.72-7.94-2.15c-2.24-1.44-3.97-3.42-5.18-5.96c-1.21-2.54-1.82-5.46-1.82-8.76
		c0-3.3,0.6-6.23,1.8-8.78c1.2-2.56,2.87-4.57,5.02-6.03c2.15-1.46,4.64-2.2,7.47-2.2c1.76,0,3.47,0.33,5.12,0.98
		c1.66,0.65,3.15,1.65,4.48,2.97c1.33,1.33,2.37,3.01,3.13,5.05c0.76,2.04,1.14,4.47,1.14,7.28v1.7h-25.56v-3.34h23.51l-1.73,1.29
		c0-2.38-0.41-4.51-1.22-6.38c-0.81-1.87-1.97-3.36-3.47-4.45c-1.5-1.09-3.31-1.64-5.42-1.64c-2.09,0-3.92,0.55-5.5,1.65
		c-1.58,1.1-2.81,2.57-3.67,4.39c-0.87,1.83-1.3,3.82-1.3,5.99v1.96c0,2.62,0.45,4.89,1.36,6.84c0.91,1.94,2.2,3.45,3.86,4.52
		s3.64,1.61,5.9,1.61c1.54,0,2.9-0.24,4.07-0.73c1.17-0.49,2.16-1.15,2.96-1.98c0.8-0.83,1.41-1.73,1.82-2.71l3.6,1.2
		c-0.51,1.37-1.32,2.63-2.45,3.79c-1.12,1.16-2.53,2.1-4.22,2.81C760.27,705.08,758.35,705.44,756.18,705.44z"/>
	<path d="M775.71,704.74V672h3.66v5.07h0.29c0.66-1.66,1.81-2.99,3.44-4c1.63-1.01,3.47-1.51,5.52-1.51c0.31,0,0.66,0,1.04,0
		s0.7,0.01,0.95,0.03v3.84c-0.16-0.02-0.45-0.05-0.88-0.1c-0.43-0.05-0.91-0.07-1.44-0.07c-1.68,0-3.19,0.36-4.52,1.08
		c-1.34,0.72-2.39,1.71-3.15,2.97c-0.76,1.26-1.14,2.7-1.14,4.32v21.11H775.71z"/>
	<path d="M807.45,705.44c-3.04,0-5.69-0.72-7.93-2.15c-2.24-1.44-3.97-3.42-5.18-5.96c-1.21-2.54-1.82-5.46-1.82-8.76
		c0-3.3,0.6-6.23,1.8-8.78c1.2-2.56,2.87-4.57,5.02-6.03c2.15-1.46,4.64-2.2,7.47-2.2c1.76,0,3.47,0.33,5.12,0.98
		c1.66,0.65,3.15,1.65,4.48,2.97c1.33,1.33,2.37,3.01,3.13,5.05c0.76,2.04,1.14,4.47,1.14,7.28v1.7h-25.56v-3.34h23.51l-1.73,1.29
		c0-2.38-0.41-4.51-1.22-6.38c-0.81-1.87-1.97-3.36-3.47-4.45c-1.5-1.09-3.31-1.64-5.42-1.64c-2.09,0-3.92,0.55-5.5,1.65
		c-1.58,1.1-2.81,2.57-3.67,4.39c-0.87,1.83-1.3,3.82-1.3,5.99v1.96c0,2.62,0.45,4.89,1.36,6.84c0.91,1.94,2.2,3.45,3.86,4.52
		s3.64,1.61,5.9,1.61c1.54,0,2.9-0.24,4.07-0.73c1.17-0.49,2.16-1.15,2.96-1.98c0.8-0.83,1.41-1.73,1.82-2.71l3.6,1.2
		c-0.51,1.37-1.32,2.63-2.45,3.79c-1.12,1.16-2.53,2.1-4.22,2.81C811.54,705.08,809.62,705.44,807.45,705.44z"/>
</g>
</svg>
