<?xml version="1.0" encoding="utf-8"?>
<!-- Generator: Adobe Illustrator 22.0.1, SVG Export Plug-In . SVG Version: 6.00 Build 0)  -->
<svg version="1.1" id="Layer_1" xmlns="http://www.w3.org/2000/svg" xmlns:xlink="http://www.w3.org/1999/xlink" x="0px" y="0px"
	 viewBox="0 0 256 256" style="enable-background:new 0 0 256 256;" xml:space="preserve">
<style type="text/css">
	.st0{fill:#3A312A;}
	.st1{fill:#D6DF58;}
	.st2{fill:#87796F;}
	.st3{fill:#B9C239;}
	.st4{fill:#EF6D7A;}
	.st5{fill:#FCE8CB;}
	.st6{fill:#D5DE58;}
	.st7{fill:#D34E5C;}
	.st8{fill:#695B51;}
	.st9{fill:#8AC6DD;}
	.st10{fill:#D7E057;}
	.st11{fill:#B8C136;}
	.st12{fill:#F16C7A;}
	.st13{fill:#8AC2D9;}
	.st14{fill:#F7E3C7;}
	.st15{fill:#8AC3DA;}
	.st16{fill:#6DA3BC;}
	.st17{fill:#6A5C52;}
	.st18{fill:#D5DC57;}
	.st19{fill:#F6E2C6;}
	.st20{fill:#DBC7AA;}
	.st21{fill:#CE4E61;}
	.st22{fill:#FAE6CA;}
	.st23{fill:#8AC5DC;}
	.st24{fill:#DDC9AC;}
	.st25{fill:#DECAAD;}
	.st26{fill:#6CA6BE;}
	.st27{fill:#F8E4C8;}
	.st28{fill:#89C4DB;}
	.st29{fill:#ED6E7A;}
	.st30{fill:#D24E5C;}
	.st31{fill:#6DA4BD;}
	.st32{fill:#EB6E7A;}
	.st33{fill:#68A7BB;}
	.st34{fill:#B9BC37;}
	.st35{fill:#CC4E61;}
	.st36{fill:#6CA8BF;}
	.st37{fill-rule:evenodd;clip-rule:evenodd;fill:#D5DE58;}
	.st38{fill:#EA6D7A;}
	.st39{fill:#F4E0C4;}
	.st40{fill-rule:evenodd;clip-rule:evenodd;fill:#D6DF58;}
	.st41{fill-rule:evenodd;clip-rule:evenodd;fill:#F16C7A;}
	.st42{fill:#F3DEC3;}
	.st43{fill-rule:evenodd;clip-rule:evenodd;fill:#FAE6CA;}
	.st44{fill:#F59689;}
	.st45{fill-rule:evenodd;clip-rule:evenodd;fill:#F8E4C8;}
	.st46{fill-rule:evenodd;clip-rule:evenodd;fill:#FCE8CB;}
	.st47{fill:#F5978A;}
	.st48{fill:#D4DB56;}
	.st49{fill-rule:evenodd;clip-rule:evenodd;fill:#D4DA55;}
	.st50{fill-rule:evenodd;clip-rule:evenodd;fill:#EB6E7A;}
	.st51{fill:#68A6B9;}
	.st52{fill-rule:evenodd;clip-rule:evenodd;fill:#D5DC57;}
	.st53{fill:#8AC1D8;}
	.st54{fill:#F5E1C5;}
	.st55{fill:#D4D752;}
	.st56{fill:#D3D751;}
	.st57{fill:#D4D853;}
	.st58{fill:#E96C7A;}
	.st59{fill:#D4DA55;}
	.st60{fill:#8BC0D7;}
	.st61{fill:#87796F;stroke:#3A312A;stroke-width:3;stroke-linecap:round;stroke-linejoin:round;stroke-miterlimit:10;}
</style>
<g>
	<g>
		<g>
			<path class="st2" d="M234.933,215.981l-76.969-76.97c-2.537,3.623-5.425,7.07-8.653,10.298s-6.676,6.116-10.298,8.653
				l36.616,36.616l40.354,40.354c5.233,5.233,13.718,5.233,18.951,0C240.166,229.699,240.166,221.215,234.933,215.981z"/>
		</g>
	</g>
	<g>
		<g>
			<path class="st0" d="M235.993,214.921l-76.97-76.97c-0.313-0.313-0.74-0.473-1.191-0.434c-0.441,0.039-0.844,0.271-1.098,0.634
				c-2.503,3.573-5.357,6.971-8.485,10.098c-3.129,3.128-6.526,5.983-10.098,8.485c-0.363,0.254-0.596,0.656-0.634,1.098
				c-0.039,0.441,0.12,0.878,0.434,1.191l36.615,36.616c0.586,0.586,1.535,0.586,2.121,0c0.586-0.586,0.586-1.536,0-2.121
				l-35.366-35.367c3.185-2.343,6.223-4.955,9.049-7.781c2.825-2.825,5.438-5.863,7.781-9.049l75.721,75.721
				c2.248,2.248,3.485,5.236,3.485,8.415c0,3.179-1.237,6.167-3.485,8.415c-2.248,2.247-5.236,3.486-8.415,3.486
				s-6.167-1.238-8.415-3.486l-31.085-31.085c-0.586-0.586-1.535-0.586-2.121,0c-0.586,0.586-0.586,1.536,0,2.121l31.085,31.085
				c2.814,2.814,6.556,4.365,10.536,4.365s7.722-1.55,10.536-4.365c2.814-2.815,4.364-6.556,4.364-10.536
				C240.357,221.477,238.808,217.735,235.993,214.921z"/>
		</g>
	</g>
	<g>
		<g>
			<path class="st10" d="M171.962,130.839l-6.09-6.09c-3.762,8.924-9.292,17.289-16.563,24.56
				c-7.271,7.271-15.635,12.8-24.56,16.563l6.09,6.09c4.331,4.331,11.366,4.331,15.697,0l25.426-25.426
				C176.293,142.205,176.293,135.171,171.962,130.839z"/>
		</g>
	</g>
	<g>
		<g>
			<path class="st0" d="M173.022,129.779l-6.089-6.089c-0.354-0.353-0.858-0.505-1.349-0.412c-0.49,0.096-0.9,0.429-1.094,0.89
				c-3.793,8.996-9.258,17.098-16.242,24.082c-6.985,6.985-15.087,12.45-24.082,16.241c-0.46,0.194-0.793,0.604-0.889,1.094
				c-0.097,0.49,0.058,0.996,0.411,1.349l6.09,6.09c2.456,2.456,5.683,3.685,8.908,3.685c3.227,0,6.453-1.229,8.909-3.685
				l25.426-25.426C177.935,142.684,177.935,134.691,173.022,129.779z M170.901,145.476l-25.426,25.426
				c-1.812,1.811-4.222,2.809-6.788,2.809c-2.565,0-4.976-0.998-6.787-2.809l-4.537-4.537c8.545-3.89,16.276-9.263,23.007-15.995
				c6.73-6.73,12.104-14.46,15.995-23.007l4.536,4.537c1.812,1.812,2.809,4.222,2.809,6.788
				C173.71,141.253,172.713,143.664,170.901,145.476z"/>
		</g>
	</g>
	<g>
		<g>
			
				<ellipse transform="matrix(0.3469 -0.9379 0.9379 0.3469 -26.9344 150.4431)" class="st12" cx="94.563" cy="94.563" rx="77.42" ry="77.42"/>
		</g>
	</g>
	<g>
		<g>
			<path class="st0" d="M150.367,38.758c-14.906-14.906-34.725-23.116-55.805-23.116c-21.079,0-40.899,8.21-55.805,23.115
				c-30.771,30.771-30.771,80.839,0,111.61c14.906,14.906,34.725,23.116,55.805,23.116c21.079,0,40.899-8.21,55.805-23.115
				C181.138,119.597,181.138,69.528,150.367,38.758z M148.246,148.247c-14.34,14.339-33.404,22.236-53.684,22.236
				s-39.344-7.898-53.684-22.237c-29.601-29.601-29.601-77.766,0-107.368c14.34-14.339,33.404-22.236,53.684-22.236
				s39.344,7.898,53.684,22.237C177.847,70.48,177.847,118.645,148.246,148.247z"/>
		</g>
	</g>
	<g>
		<g>
			<path class="st9" d="M135.33,53.796c-20.907-20.907-53.868-22.387-76.498-4.467l-9.328,9.276
				c-18.109,22.636-16.685,55.749,4.291,76.725c22.515,22.515,59.019,22.515,81.534,0.001
				C157.845,112.815,157.845,76.31,135.33,53.796z"/>
		</g>
	</g>
	<g>
		<g>
			<path class="st0" d="M136.39,52.735C115.157,31.502,81.415,29.532,57.9,48.152c-0.649,0.514-0.759,1.458-0.244,2.107
				c0.514,0.65,1.456,0.759,2.107,0.245c22.32-17.674,54.351-15.802,74.505,4.352c10.606,10.606,16.447,24.708,16.447,39.706
				c0,15-5.841,29.101-16.446,39.706c-21.895,21.894-57.52,21.893-79.414,0c-20.258-20.258-22.055-52.383-4.181-74.727
				c0.518-0.647,0.413-1.591-0.233-2.108c-0.648-0.518-1.592-0.412-2.108,0.234c-18.831,23.539-16.939,57.382,4.401,78.722
				c11.533,11.533,26.679,17.299,41.828,17.298c15.146-0.002,30.298-5.767,41.828-17.297c11.173-11.172,17.325-26.027,17.325-41.828
				C153.716,78.762,147.563,63.907,136.39,52.735z"/>
		</g>
	</g>
	<g>
		<g>
			<path class="st10" d="M119.411,204.631c-0.922,10.875-12.333,12.592-12.333,12.592c9.797,0.458,12.238,13.222,12.238,13.222
				c0.209-9.101,12.613-13.356,12.613-13.356C122.638,216.536,119.411,204.631,119.411,204.631z"/>
		</g>
	</g>
	<g>
		<g>
			<path class="st0" d="M132.02,215.59c-8.083-0.48-11.125-11.224-11.161-11.354c-0.19-0.702-0.866-1.161-1.582-1.1
				c-0.725,0.066-1.299,0.642-1.36,1.368c-0.808,9.534-10.646,11.17-11.062,11.235c-0.763,0.115-1.314,0.789-1.274,1.56
				c0.04,0.771,0.657,1.385,1.428,1.421c8.485,0.396,10.813,11.891,10.835,12.005c0.137,0.712,0.76,1.218,1.473,1.218
				c0.041,0,0.083-0.001,0.125-0.005c0.765-0.064,1.357-0.693,1.376-1.46c0.183-7.937,11.488-11.934,11.603-11.973
				c0.677-0.234,1.095-0.913,0.997-1.622C133.318,216.175,132.734,215.633,132.02,215.59z M119.175,225.222
				c-1.28-2.885-3.458-6.306-6.993-8.158c2.719-1.325,5.887-3.641,7.578-7.59c1.464,2.833,3.915,6.281,7.688,8.019
				C124.65,219.031,121.088,221.57,119.175,225.222z"/>
		</g>
	</g>
	<g>
		<g>
			<path class="st10" d="M98.865,220.6c-0.652,7.692-8.723,8.906-8.723,8.906c6.929,0.324,8.656,9.352,8.656,9.352
				c0.148-6.437,8.921-9.447,8.921-9.447C101.148,229.02,98.865,220.6,98.865,220.6z"/>
		</g>
	</g>
	<g>
		<g>
			<path class="st0" d="M107.809,227.914c-5.375-0.319-7.455-7.562-7.496-7.707c-0.19-0.702-0.846-1.164-1.582-1.101
				c-0.725,0.065-1.299,0.642-1.36,1.367c-0.541,6.39-7.174,7.506-7.451,7.55c-0.763,0.115-1.314,0.79-1.274,1.56
				s0.657,1.385,1.428,1.421c5.651,0.264,7.238,8.06,7.253,8.135c0.137,0.712,0.76,1.218,1.473,1.218
				c0.041,0,0.083-0.002,0.125-0.005c0.765-0.063,1.358-0.693,1.376-1.46c0.121-5.304,7.832-8.036,7.907-8.062
				c0.678-0.232,1.097-0.912,1-1.622S108.523,227.956,107.809,227.914z M98.737,234.227c-0.862-1.713-2.156-3.56-4.05-4.794
				c1.689-0.967,3.354-2.412,4.446-4.458c0.985,1.704,2.444,3.566,4.502,4.746C101.941,230.739,100.018,232.227,98.737,234.227z"/>
		</g>
	</g>
	<g>
		<g>
			<path class="st10" d="M98.865,195.53c-0.652,7.692-8.723,8.906-8.723,8.906c6.929,0.324,8.656,9.352,8.656,9.352
				c0.148-6.437,8.921-9.447,8.921-9.447C101.148,203.951,98.865,195.53,98.865,195.53z"/>
		</g>
	</g>
	<g>
		<g>
			<path class="st0" d="M107.809,202.844c-5.402-0.321-7.476-7.635-7.496-7.709c-0.191-0.701-0.854-1.16-1.582-1.099
				c-0.725,0.065-1.299,0.642-1.36,1.367c-0.541,6.39-7.174,7.506-7.451,7.55c-0.763,0.115-1.313,0.79-1.274,1.561
				c0.04,0.77,0.657,1.385,1.428,1.421c5.651,0.264,7.238,8.06,7.253,8.135c0.137,0.712,0.76,1.218,1.473,1.218
				c0.041,0,0.083-0.001,0.125-0.005c0.765-0.063,1.358-0.693,1.376-1.46c0.121-5.304,7.832-8.036,7.907-8.062
				c0.678-0.232,1.097-0.912,1-1.621C109.109,203.429,108.524,202.887,107.809,202.844z M98.737,209.157
				c-0.862-1.712-2.157-3.56-4.05-4.794c1.689-0.967,3.354-2.412,4.446-4.458c0.985,1.703,2.445,3.566,4.503,4.746
				C101.941,205.67,100.017,207.157,98.737,209.157z"/>
		</g>
	</g>
	<g>
		<g>
			<path class="st36" d="M134.272,54.852c-10.61-10.6-24.71-16.44-39.71-16.44c-2.53,0-5.03,0.17-7.5,0.49
				c12.15,1.61,23.39,7.14,32.21,15.95c21.89,21.9,21.89,57.52,0,79.42c-9.04,9.04-20.42,14.35-32.21,15.92
				c2.49,0.33,4.99,0.5,7.5,0.5c14.38,0,28.76-5.47,39.71-16.42C156.162,112.372,156.162,76.752,134.272,54.852z"/>
		</g>
	</g>
</g>
</svg>
