<?xml version="1.0" encoding="utf-8"?>
<!-- Generator: Adobe Illustrator 22.0.1, SVG Export Plug-In . SVG Version: 6.00 Build 0)  -->
<svg version="1.1" id="Layer_1" xmlns="http://www.w3.org/2000/svg" xmlns:xlink="http://www.w3.org/1999/xlink" x="0px" y="0px"
	 viewBox="0 0 256 256" style="enable-background:new 0 0 256 256;" xml:space="preserve">
<style type="text/css">
	.st0{fill:#3A312A;}
	.st1{fill:#D6DF58;}
	.st2{fill:#87796F;}
	.st3{fill:#B9C239;}
	.st4{fill:#EF6D7A;}
	.st5{fill:#FCE8CB;}
	.st6{fill:#D5DE58;}
	.st7{fill:#D34E5C;}
	.st8{fill:#695B51;}
	.st9{fill:#8AC6DD;}
	.st10{fill:#D7E057;}
	.st11{fill:#B8C136;}
	.st12{fill:#F16C7A;}
	.st13{fill:#8AC2D9;}
	.st14{fill:#F7E3C7;}
	.st15{fill:#8AC3DA;}
	.st16{fill:#6DA3BC;}
	.st17{fill:#6A5C52;}
	.st18{fill:#D5DC57;}
	.st19{fill:#F6E2C6;}
	.st20{fill:#DBC7AA;}
	.st21{fill:#CE4E61;}
	.st22{fill:#FAE6CA;}
	.st23{fill:#8AC5DC;}
	.st24{fill:#DDC9AC;}
	.st25{fill:#DECAAD;}
	.st26{fill:#6CA6BE;}
	.st27{fill:#F8E4C8;}
	.st28{fill:#89C4DB;}
	.st29{fill:#ED6E7A;}
	.st30{fill:#D24E5C;}
	.st31{fill:#6DA4BD;}
	.st32{fill:#EB6E7A;}
	.st33{fill:#68A7BB;}
	.st34{fill:#B9BC37;}
	.st35{fill:#CC4E61;}
	.st36{fill:#6CA8BF;}
	.st37{fill-rule:evenodd;clip-rule:evenodd;fill:#D5DE58;}
	.st38{fill:#EA6D7A;}
	.st39{fill:#F4E0C4;}
	.st40{fill-rule:evenodd;clip-rule:evenodd;fill:#D6DF58;}
	.st41{fill-rule:evenodd;clip-rule:evenodd;fill:#F16C7A;}
	.st42{fill:#F3DEC3;}
	.st43{fill-rule:evenodd;clip-rule:evenodd;fill:#FAE6CA;}
	.st44{fill:#F59689;}
	.st45{fill-rule:evenodd;clip-rule:evenodd;fill:#F8E4C8;}
	.st46{fill-rule:evenodd;clip-rule:evenodd;fill:#FCE8CB;}
	.st47{fill:#F5978A;}
	.st48{fill:#D4DB56;}
	.st49{fill-rule:evenodd;clip-rule:evenodd;fill:#D4DA55;}
	.st50{fill-rule:evenodd;clip-rule:evenodd;fill:#EB6E7A;}
	.st51{fill:#68A6B9;}
	.st52{fill-rule:evenodd;clip-rule:evenodd;fill:#D5DC57;}
	.st53{fill:#8AC1D8;}
	.st54{fill:#F5E1C5;}
	.st55{fill:#D4D752;}
	.st56{fill:#D3D751;}
	.st57{fill:#D4D853;}
	.st58{fill:#E96C7A;}
	.st59{fill:#D4DA55;}
	.st60{fill:#8BC0D7;}
	.st61{fill:#87796F;stroke:#3A312A;stroke-width:3;stroke-linecap:round;stroke-linejoin:round;stroke-miterlimit:10;}
</style>
<g>
	<g>
		<g>
			<path class="st6" d="M47.866,25.613c-0.974,11.564-13.025,13.389-13.025,13.389c10.347,0.487,12.925,14.059,12.925,14.059
				c0.221-9.677,13.321-14.202,13.321-14.202C51.274,38.272,47.866,25.613,47.866,25.613z"/>
		</g>
	</g>
	<g>
		<g>
			<path class="st0" d="M61.177,37.362c-8.604-0.514-11.832-12.024-11.863-12.14c-0.191-0.703-0.864-1.168-1.583-1.102
				c-0.725,0.066-1.298,0.642-1.359,1.367c-0.86,10.215-11.314,11.964-11.755,12.033c-0.763,0.115-1.313,0.79-1.273,1.561
				c0.04,0.77,0.657,1.384,1.428,1.421c9.028,0.425,11.499,12.718,11.523,12.842c0.137,0.711,0.759,1.217,1.472,1.217
				c0.042,0,0.084-0.001,0.126-0.005c0.764-0.064,1.357-0.693,1.375-1.46c0.195-8.509,12.192-12.777,12.313-12.819
				c0.675-0.235,1.092-0.915,0.994-1.623C62.475,37.946,61.891,37.405,61.177,37.362z M47.611,47.708
				c-1.356-3.13-3.709-6.907-7.587-8.877c2.931-1.405,6.409-3.913,8.202-8.273c1.551,3.071,4.199,6.88,8.334,8.722
				C53.553,40.921,49.637,43.687,47.611,47.708z"/>
		</g>
	</g>
	<g>
		<g>
			<path class="st6" d="M26.167,42.594c-0.689,8.179-9.212,9.471-9.212,9.471c7.318,0.344,9.142,9.944,9.142,9.944
				c0.156-6.844,9.422-10.045,9.422-10.045C28.578,51.548,26.167,42.594,26.167,42.594z"/>
		</g>
	</g>
	<g>
		<g>
			<path class="st0" d="M35.608,50.465c-5.766-0.345-7.972-8.185-7.993-8.264c-0.19-0.702-0.852-1.166-1.582-1.102
				c-0.726,0.065-1.299,0.642-1.36,1.368c-0.579,6.871-7.646,8.067-7.942,8.114c-0.763,0.115-1.313,0.79-1.273,1.561
				c0.04,0.77,0.657,1.384,1.428,1.421c6.035,0.284,7.723,8.643,7.739,8.726c0.135,0.712,0.759,1.22,1.473,1.22
				c0.041,0,0.083-0.001,0.125-0.005c0.765-0.064,1.358-0.694,1.376-1.461c0.13-5.709,8.332-8.634,8.412-8.662
				c0.677-0.234,1.094-0.913,0.996-1.622C36.907,51.05,36.323,50.508,35.608,50.465z M26.024,57.261
				c-0.924-1.886-2.34-3.947-4.447-5.28c1.855-1.041,3.697-2.63,4.871-4.916c1.057,1.874,2.654,3.954,4.941,5.223
				C29.539,53.389,27.4,55.028,26.024,57.261z"/>
		</g>
	</g>
	<g>
		<g>
			<path class="st6" d="M26.167,15.936c-0.689,8.179-9.212,9.471-9.212,9.471c7.318,0.344,9.142,9.944,9.142,9.944
				c0.156-6.845,9.422-10.045,9.422-10.045C28.578,24.89,26.167,15.936,26.167,15.936z"/>
		</g>
	</g>
	<g>
		<g>
			<path class="st0" d="M35.608,23.808c-5.766-0.345-7.972-8.185-7.994-8.265c-0.19-0.702-0.852-1.167-1.582-1.102
				c-0.726,0.065-1.299,0.642-1.36,1.368c-0.579,6.871-7.646,8.067-7.942,8.114c-0.763,0.115-1.313,0.79-1.273,1.561
				c0.04,0.77,0.657,1.384,1.427,1.421c6.035,0.284,7.724,8.644,7.739,8.726c0.135,0.712,0.759,1.22,1.472,1.22
				c0.042,0,0.083-0.002,0.125-0.005c0.765-0.063,1.358-0.694,1.376-1.461c0.13-5.71,8.331-8.634,8.412-8.662
				c0.676-0.234,1.094-0.913,0.996-1.622C36.907,24.393,36.323,23.851,35.608,23.808z M26.024,30.604
				c-0.924-1.886-2.34-3.947-4.447-5.28c1.855-1.042,3.697-2.63,4.871-4.917c1.057,1.874,2.654,3.954,4.941,5.224
				C29.539,26.731,27.4,28.371,26.024,30.604z"/>
		</g>
	</g>
	<g>
		<g>
			<path class="st28" d="M141.811,81h-36.286H91.808H34.422c-6.461,0-11.695,5.243-11.695,11.704V179.5h130.779V92.704
				C153.506,86.243,148.273,81,141.811,81z"/>
		</g>
	</g>
	<g>
		<g>
			<path class="st0" d="M141.811,79.5h-36.286c-0.829,0-1.5,0.671-1.5,1.5s0.671,1.5,1.5,1.5h36.286
				c5.622,0,10.195,4.578,10.195,10.204V178H24.227V92.704c0-5.626,4.573-10.204,10.195-10.204h57.387c0.829,0,1.5-0.671,1.5-1.5
				s-0.671-1.5-1.5-1.5H34.421c-7.276,0-13.195,5.923-13.195,13.204V179.5c0,0.829,0.671,1.5,1.5,1.5h130.779
				c0.829,0,1.5-0.671,1.5-1.5V92.704C155.006,85.423,149.087,79.5,141.811,79.5z"/>
		</g>
	</g>
	<g>
		<g>
			<path class="st6" d="M233.264,160.295c-0.274-16.021-6.603-30.569-16.796-41.452c-11.364-12.158-27.546-19.753-45.495-19.753
				h-17.467v80.414H22.727v24.876h210.547v-42.989C233.273,161.022,233.273,160.664,233.264,160.295z"/>
		</g>
	</g>
	<g>
		<g>
			<path class="st0" d="M234.764,160.27c-0.27-15.822-6.379-30.898-17.2-42.451c-12.017-12.855-28.998-20.228-46.591-20.228h-17.467
				c-0.829,0-1.5,0.671-1.5,1.5v78.914H22.727c-0.829,0-1.5,0.671-1.5,1.5v24.876c0,0.829,0.671,1.5,1.5,1.5h210.547
				c0.829,0,1.5-0.671,1.5-1.5v-42.989C234.773,161.009,234.773,160.637,234.764,160.27z M231.773,202.88H24.227v-21.876h129.279
				c0.829,0,1.5-0.671,1.5-1.5V100.59h15.967c16.765,0,32.948,7.026,44.4,19.278c10.312,11.01,16.133,25.375,16.391,40.466
				c0.009,0.355,0.009,0.701,0.009,1.057V202.88z"/>
		</g>
	</g>
	<g>
		<g>
			<path class="st2" d="M234.846,204.38H21.155c-2.703,0-4.895,2.191-4.895,4.895c0,2.703,2.192,4.895,4.895,4.895h213.691
				c2.703,0,4.895-2.191,4.895-4.895C239.74,206.572,237.549,204.38,234.846,204.38z"/>
		</g>
	</g>
	<g>
		<g>
			<path class="st0" d="M234.846,202.88H21.154c-3.526,0-6.394,2.869-6.394,6.394c0,3.526,2.869,6.395,6.394,6.395h106.328
				c0.829,0,1.5-0.671,1.5-1.5s-0.671-1.5-1.5-1.5H21.154c-1.872,0-3.394-1.523-3.394-3.395c0-1.872,1.523-3.394,3.394-3.394
				h213.691c1.872,0,3.394,1.523,3.394,3.394c0,1.872-1.523,3.395-3.394,3.395h-93.661c-0.829,0-1.5,0.671-1.5,1.5
				s0.671,1.5,1.5,1.5h93.661c3.526,0,6.394-2.869,6.394-6.395C241.24,205.749,238.372,202.88,234.846,202.88z"/>
		</g>
	</g>
	<g>
		<g>
			<circle class="st2" cx="78.102" cy="214.004" r="26.06"/>
		</g>
	</g>
	<g>
		<g>
			<path class="st0" d="M78.102,186.445c-15.196,0-27.56,12.363-27.56,27.56s12.363,27.56,27.56,27.56
				c15.196,0,27.56-12.363,27.56-27.56S93.298,186.445,78.102,186.445z M78.102,238.564c-13.542,0-24.56-11.018-24.56-24.56
				s11.018-24.56,24.56-24.56c13.542,0,24.56,11.018,24.56,24.56S91.644,238.564,78.102,238.564z"/>
		</g>
	</g>
	<g>
		<g>
			<circle class="st27" cx="78.102" cy="214.004" r="11.541"/>
		</g>
	</g>
	<g>
		<g>
			<path class="st0" d="M78.102,200.963c-7.191,0-13.042,5.851-13.042,13.042s5.851,13.041,13.042,13.041
				c7.191,0,13.041-5.85,13.041-13.041S85.293,200.963,78.102,200.963z M78.102,224.045c-5.537,0-10.042-4.504-10.042-10.041
				c0-5.537,4.504-10.042,10.042-10.042c5.537,0,10.041,4.504,10.041,10.042C88.143,219.541,83.639,224.045,78.102,224.045z"/>
		</g>
	</g>
	<g>
		<g>
			
				<ellipse transform="matrix(0.9966 -0.0825 0.0825 0.9966 -17.0213 15.9781)" class="st2" cx="184.878" cy="214.004" rx="26.059" ry="26.06"/>
		</g>
	</g>
	<g>
		<g>
			<path class="st0" d="M184.878,186.445c-15.196,0-27.56,12.363-27.56,27.56s12.363,27.56,27.56,27.56s27.559-12.363,27.559-27.56
				S200.075,186.445,184.878,186.445z M184.878,238.564c-13.542,0-24.56-11.018-24.56-24.56s11.018-24.56,24.56-24.56
				s24.559,11.018,24.559,24.56S198.42,238.564,184.878,238.564z"/>
		</g>
	</g>
	<g>
		<g>
			
				<ellipse transform="matrix(0.3827 -0.9239 0.9239 0.3827 -83.5858 302.9134)" class="st27" cx="184.878" cy="214.004" rx="11.541" ry="11.541"/>
		</g>
	</g>
	<g>
		<g>
			<path class="st0" d="M184.878,200.963c-7.191,0-13.042,5.851-13.042,13.042s5.851,13.041,13.042,13.041
				c7.191,0,13.041-5.85,13.041-13.041S192.069,200.963,184.878,200.963z M184.878,224.045c-5.537,0-10.042-4.504-10.042-10.041
				c0-5.537,4.504-10.042,10.042-10.042c5.537,0,10.041,4.504,10.041,10.042C194.919,219.541,190.415,224.045,184.878,224.045z"/>
		</g>
	</g>
	<g>
		<g>
			<path class="st28" d="M216.468,118.844h-40.592c-2.909,0-5.271,2.031-5.271,4.534v32.383c0,2.504,2.362,4.534,5.271,4.534h57.388
				C232.99,144.275,226.661,129.727,216.468,118.844z"/>
		</g>
	</g>
	<g>
		<g>
			<path class="st0" d="M217.563,117.819c-0.284-0.303-0.68-0.475-1.095-0.475h-40.592c-3.733,0-6.771,2.707-6.771,6.034v32.383
				c0,3.328,3.038,6.035,6.771,6.035h57.388c0.402,0,0.788-0.162,1.07-0.448c0.282-0.287,0.437-0.675,0.43-1.078
				C234.493,144.449,228.384,129.373,217.563,117.819z M175.875,158.796c-2.079,0-3.771-1.361-3.771-3.035v-32.383
				c0-1.673,1.692-3.034,3.771-3.034h39.938c9.694,10.571,15.303,24.149,15.906,38.452H175.875z"/>
		</g>
	</g>
	<g>
		<g>
			<polygon class="st0" points="58.5,123.647 58.5,118.672 40.81,118.672 40.81,141.828 47.996,141.828 47.996,132.366 
				56.967,132.366 56.967,127.691 47.996,127.691 47.996,123.647 			"/>
		</g>
	</g>
	<g>
		<g>
			<path class="st0" d="M83.377,135.118c-0.169-0.337-0.503-0.817-1.003-1.438c-0.5-0.622-0.881-1.028-1.144-1.217
				c-0.39-0.285-1.011-0.569-1.863-0.854c1.064-0.242,1.902-0.547,2.513-0.916c0.959-0.579,1.712-1.334,2.26-2.267
				c0.548-0.932,0.822-2.04,0.822-3.325c0-1.474-0.358-2.725-1.074-3.751c-0.716-1.027-1.658-1.729-2.827-2.109
				c-1.169-0.379-2.859-0.568-5.07-0.568H64.065v23.155h7.187v-9.398h0.632c0.653,0,1.237,0.179,1.753,0.537
				c0.379,0.274,0.811,0.869,1.295,1.785l3.825,7.076h8.084L83.377,135.118z M77.325,127.012c-0.3,0.39-0.687,0.632-1.161,0.727
				c-0.937,0.211-1.569,0.316-1.895,0.316h-3.017v-4.707h3.143c1.306,0,2.196,0.2,2.669,0.6c0.474,0.4,0.711,0.974,0.711,1.722
				C77.775,126.175,77.625,126.622,77.325,127.012z"/>
		</g>
	</g>
	<g>
		<g>
			<polygon class="st0" points="97.904,136.583 97.904,132.018 109.039,132.018 109.039,127.296 97.904,127.296 97.904,123.616 
				109.908,123.616 109.908,118.672 90.733,118.672 90.733,141.828 110.255,141.828 110.255,136.583 			"/>
		</g>
	</g>
	<g>
		<g>
			<polygon class="st0" points="122.881,136.583 122.881,132.018 134.017,132.018 134.017,127.296 122.881,127.296 122.881,123.616 
				134.885,123.616 134.885,118.672 115.711,118.672 115.711,141.828 135.233,141.828 135.233,136.583 			"/>
		</g>
	</g>
	<g>
		<g>
			<path class="st11" d="M170.97,100.59h-15.96c15.57,0.01,30.61,6.08,41.85,16.75h16C201.61,106.66,186.55,100.59,170.97,100.59z"
				/>
		</g>
	</g>
	<g>
		<g>
			<rect x="215.77" y="161.8" class="st11" width="16" height="41.08"/>
		</g>
	</g>
	<g>
		<g>
			<path class="st17" d="M234.85,205.88h-16c1.87,0,3.39,1.52,3.39,3.39c0,1.88-1.52,3.4-3.39,3.4h16c1.87,0,3.39-1.52,3.39-3.4
				C238.24,207.4,236.72,205.88,234.85,205.88z"/>
		</g>
	</g>
	<g>
		<g>
			<path class="st31" d="M215.81,120.34h-16c9.7,10.58,15.31,24.15,15.91,38.46h16C231.12,144.49,225.51,130.92,215.81,120.34z"/>
		</g>
	</g>
</g>
</svg>
