<?xml version="1.0" encoding="utf-8"?>
<!-- Generator: Adobe Illustrator 22.0.1, SVG Export Plug-In . SVG Version: 6.00 Build 0)  -->
<svg version="1.1" id="Layer_1" xmlns="http://www.w3.org/2000/svg" xmlns:xlink="http://www.w3.org/1999/xlink" x="0px" y="0px"
	 viewBox="0 0 256 256" style="enable-background:new 0 0 256 256;" xml:space="preserve">
<style type="text/css">
	.st0{fill:#3A312A;}
	.st1{fill:#D6DF58;}
	.st2{fill:#87796F;}
	.st3{fill:#B9C239;}
	.st4{fill:#EF6D7A;}
	.st5{fill:#FCE8CB;}
	.st6{fill:#D5DE58;}
	.st7{fill:#D34E5C;}
	.st8{fill:#695B51;}
	.st9{fill:#8AC6DD;}
	.st10{fill:#D7E057;}
	.st11{fill:#B8C136;}
	.st12{fill:#F16C7A;}
	.st13{fill:#8AC2D9;}
	.st14{fill:#F7E3C7;}
	.st15{fill:#8AC3DA;}
	.st16{fill:#6DA3BC;}
	.st17{fill:#6A5C52;}
	.st18{fill:#D5DC57;}
	.st19{fill:#F6E2C6;}
	.st20{fill:#DBC7AA;}
	.st21{fill:#CE4E61;}
	.st22{fill:#FAE6CA;}
	.st23{fill:#8AC5DC;}
	.st24{fill:#DDC9AC;}
	.st25{fill:#DECAAD;}
	.st26{fill:#6CA6BE;}
	.st27{fill:#F8E4C8;}
	.st28{fill:#89C4DB;}
	.st29{fill:#ED6E7A;}
	.st30{fill:#D24E5C;}
	.st31{fill:#6DA4BD;}
	.st32{fill:#EB6E7A;}
	.st33{fill:#68A7BB;}
	.st34{fill:#B9BC37;}
	.st35{fill:#CC4E61;}
	.st36{fill:#6CA8BF;}
	.st37{fill-rule:evenodd;clip-rule:evenodd;fill:#D5DE58;}
	.st38{fill:#EA6D7A;}
	.st39{fill:#F4E0C4;}
	.st40{fill-rule:evenodd;clip-rule:evenodd;fill:#D6DF58;}
	.st41{fill-rule:evenodd;clip-rule:evenodd;fill:#F16C7A;}
	.st42{fill:#F3DEC3;}
	.st43{fill-rule:evenodd;clip-rule:evenodd;fill:#FAE6CA;}
	.st44{fill:#F59689;}
	.st45{fill-rule:evenodd;clip-rule:evenodd;fill:#F8E4C8;}
	.st46{fill-rule:evenodd;clip-rule:evenodd;fill:#FCE8CB;}
	.st47{fill:#F5978A;}
	.st48{fill:#D4DB56;}
	.st49{fill-rule:evenodd;clip-rule:evenodd;fill:#D4DA55;}
	.st50{fill-rule:evenodd;clip-rule:evenodd;fill:#EB6E7A;}
	.st51{fill:#68A6B9;}
	.st52{fill-rule:evenodd;clip-rule:evenodd;fill:#D5DC57;}
	.st53{fill:#8AC1D8;}
	.st54{fill:#F5E1C5;}
	.st55{fill:#D4D752;}
	.st56{fill:#D3D751;}
	.st57{fill:#D4D853;}
	.st58{fill:#E96C7A;}
	.st59{fill:#D4DA55;}
	.st60{fill:#8BC0D7;}
	.st61{fill:#87796F;stroke:#3A312A;stroke-width:3;stroke-linecap:round;stroke-linejoin:round;stroke-miterlimit:10;}
</style>
<g>
	<g>
		<g>
			<path class="st18" d="M226.228,26.227c-0.974,11.564-13.024,13.389-13.024,13.389c10.347,0.487,12.925,14.059,12.925,14.059
				c0.221-9.677,13.321-14.202,13.321-14.202C229.636,38.886,226.228,26.227,226.228,26.227z"/>
		</g>
	</g>
	<g>
		<g>
			<path class="st0" d="M239.54,37.976c-8.604-0.514-11.832-12.024-11.863-12.141c-0.19-0.702-0.848-1.162-1.584-1.102
				c-0.725,0.066-1.298,0.642-1.359,1.367c-0.86,10.215-11.313,11.964-11.755,12.033c-0.763,0.115-1.313,0.79-1.273,1.561
				c0.04,0.77,0.657,1.384,1.428,1.421c9.028,0.425,11.499,12.718,11.522,12.842c0.138,0.711,0.76,1.217,1.473,1.217
				c0.042,0,0.084-0.001,0.126-0.005c0.765-0.064,1.357-0.693,1.375-1.459c0.193-8.508,12.191-12.777,12.313-12.819
				c0.676-0.235,1.092-0.914,0.994-1.623C240.837,38.56,240.254,38.019,239.54,37.976z M225.974,48.321
				c-1.356-3.13-3.709-6.907-7.587-8.876c2.931-1.405,6.409-3.913,8.202-8.273c1.551,3.071,4.199,6.88,8.334,8.723
				C231.915,41.535,228,44.3,225.974,48.321z"/>
		</g>
	</g>
	<g>
		<g>
			<path class="st18" d="M204.53,43.207c-0.689,8.179-9.212,9.47-9.212,9.47c7.318,0.344,9.142,9.944,9.142,9.944
				c0.156-6.844,9.422-10.045,9.422-10.045C206.94,52.161,204.53,43.207,204.53,43.207z"/>
		</g>
	</g>
	<g>
		<g>
			<path class="st0" d="M213.971,51.079c-5.766-0.345-7.972-8.185-7.994-8.264c-0.189-0.702-0.863-1.165-1.581-1.102
				c-0.726,0.065-1.3,0.643-1.361,1.368c-0.578,6.87-7.646,8.066-7.941,8.113c-0.763,0.115-1.313,0.79-1.273,1.561
				c0.04,0.77,0.657,1.384,1.428,1.421c6.034,0.284,7.723,8.644,7.738,8.726c0.136,0.713,0.759,1.22,1.473,1.22
				c0.041,0,0.083-0.001,0.125-0.005c0.765-0.063,1.358-0.694,1.376-1.461c0.13-5.709,8.331-8.634,8.412-8.662
				c0.676-0.234,1.093-0.913,0.996-1.622C215.27,51.664,214.685,51.122,213.971,51.079z M204.386,57.875
				c-0.924-1.886-2.339-3.947-4.446-5.28c1.855-1.042,3.697-2.63,4.87-4.917c1.058,1.874,2.654,3.955,4.941,5.224
				C207.901,54.002,205.763,55.643,204.386,57.875z"/>
		</g>
	</g>
	<g>
		<g>
			<path class="st18" d="M204.53,16.55c-0.689,8.179-9.212,9.471-9.212,9.471c7.318,0.344,9.142,9.944,9.142,9.944
				c0.156-6.844,9.422-10.045,9.422-10.045C206.94,25.504,204.53,16.55,204.53,16.55z"/>
		</g>
	</g>
	<g>
		<g>
			<path class="st0" d="M213.971,24.422c-5.766-0.345-7.972-8.186-7.994-8.265c-0.189-0.702-0.863-1.164-1.581-1.102
				c-0.726,0.065-1.3,0.643-1.361,1.368c-0.578,6.871-7.646,8.067-7.941,8.114c-0.763,0.115-1.313,0.79-1.273,1.561
				c0.04,0.77,0.657,1.384,1.428,1.421c6.034,0.284,7.723,8.644,7.738,8.726c0.136,0.713,0.759,1.22,1.473,1.22
				c0.041,0,0.083-0.001,0.125-0.005c0.765-0.063,1.358-0.694,1.376-1.461c0.13-5.709,8.331-8.634,8.412-8.662
				c0.676-0.234,1.093-0.913,0.996-1.622C215.27,25.006,214.685,24.465,213.971,24.422z M204.386,31.217
				c-0.924-1.885-2.34-3.947-4.446-5.28c1.855-1.041,3.697-2.629,4.87-4.916c1.058,1.874,2.654,3.954,4.941,5.223
				C207.901,27.345,205.762,28.984,204.386,31.217z"/>
		</g>
	</g>
	<g>
		<g>
			<path class="st23" d="M177.245,36.967c-0.109-11.314-9.347-20.431-20.71-20.436L37.282,16.469
				C25.834,16.463,16.55,25.703,16.55,37.104v158.77c0,11.409,9.249,20.657,20.657,20.657h119.685
				c11.409,0,20.657-9.249,20.657-20.657V68.537L177.245,36.967z"/>
		</g>
	</g>
	<g>
		<g>
			<path class="st0" d="M178.745,36.953c-0.117-12.082-10.08-21.916-22.209-21.922L37.283,14.969c-0.004,0-0.008,0-0.012,0
				c-5.933,0-11.51,2.3-15.707,6.477c-4.201,4.181-6.515,9.742-6.515,15.658v38.427c0,0.829,0.672,1.5,1.5,1.5
				c0.828,0,1.5-0.671,1.5-1.5V37.104c0-5.112,2-9.917,5.631-13.531c3.631-3.614,8.457-5.603,13.591-5.603c0.003,0,0.007,0,0.01,0
				l119.253,0.062c10.492,0.005,19.11,8.507,19.211,18.951l0.305,31.555v127.336c0,10.563-8.594,19.157-19.157,19.157H37.207
				c-10.563,0-19.157-8.594-19.157-19.157V89.531c0-0.829-0.672-1.5-1.5-1.5c-0.828,0-1.5,0.671-1.5,1.5v106.343
				c0,12.218,9.939,22.157,22.157,22.157h119.686c12.218,0,22.157-9.939,22.157-22.157V68.522L178.745,36.953z"/>
		</g>
	</g>
	<g>
		<g>
			<path class="st39" d="M147.5,39.5H59.35c-11.51,0-20.85,9.34-20.85,20.85v158.3c0,11.51,9.34,20.85,20.85,20.85h22.452h13.73
				h83.118c11.51,0,20.85-9.34,20.85-20.85V91.53L147.5,39.5z"/>
		</g>
	</g>
	<g>
		<g>
			<path class="st0" d="M200.561,90.47l-52-52.03C148.279,38.158,147.898,38,147.5,38H59.35C47.026,38,37,48.026,37,60.35v158.3
				C37,230.974,47.026,241,59.35,241h22.452c0.828,0,1.5-0.671,1.5-1.5s-0.672-1.5-1.5-1.5H59.35C48.681,238,40,229.32,40,218.65
				V60.35C40,49.68,48.681,41,59.35,41h87.528L198,92.151V218.65c0,10.67-8.681,19.35-19.35,19.35H95.531
				c-0.828,0-1.5,0.671-1.5,1.5s0.672,1.5,1.5,1.5h83.119c12.323,0,22.35-10.026,22.35-22.35V91.53
				C201,91.133,200.842,90.751,200.561,90.47z"/>
		</g>
	</g>
	<g>
		<g>
			<path class="st0" d="M170.55,76.5h-102c-0.828,0-1.5,0.671-1.5,1.5s0.672,1.5,1.5,1.5h102c0.828,0,1.5-0.671,1.5-1.5
				S171.378,76.5,170.55,76.5z"/>
		</g>
	</g>
	<g>
		<g>
			<path class="st0" d="M170.55,108.135h-102c-0.828,0-1.5,0.671-1.5,1.5s0.672,1.5,1.5,1.5h102c0.828,0,1.5-0.671,1.5-1.5
				S171.378,108.135,170.55,108.135z"/>
		</g>
	</g>
	<g>
		<g>
			<path class="st0" d="M170.55,139.77h-102c-0.828,0-1.5,0.671-1.5,1.5s0.672,1.5,1.5,1.5h102c0.828,0,1.5-0.671,1.5-1.5
				S171.378,139.77,170.55,139.77z"/>
		</g>
	</g>
	<g>
		<g>
			<path class="st0" d="M170.55,171.404h-102c-0.828,0-1.5,0.671-1.5,1.5s0.672,1.5,1.5,1.5h102c0.828,0,1.5-0.671,1.5-1.5
				S171.378,171.404,170.55,171.404z"/>
		</g>
	</g>
	<g>
		<g>
			<path class="st0" d="M170.5,203h-102c-0.828,0-1.5,0.671-1.5,1.5s0.672,1.5,1.5,1.5h102c0.828,0,1.5-0.671,1.5-1.5
				S171.328,203,170.5,203z"/>
		</g>
	</g>
	<g>
		<g>
			<path class="st39" d="M147.5,39.5v33.8c0,10.14,8.22,18.36,18.36,18.36h33.64v-0.13L147.5,39.5z"/>
		</g>
	</g>
	<g>
		<g>
			<path class="st0" d="M200.561,90.469l-52-52.03c-0.428-0.429-1.074-0.559-1.635-0.325C146.365,38.346,146,38.893,146,39.5v33.8
				c0,10.951,8.909,19.86,19.86,19.86h33.64c0.828,0,1.5-0.671,1.5-1.5v-0.13C201,91.132,200.842,90.75,200.561,90.469z
				 M165.86,90.16c-9.297,0-16.86-7.563-16.86-16.86V43.123l47.011,47.038H165.86z"/>
		</g>
	</g>
	<g>
		<g>
			<path class="st25" d="M180,93.16v57.83c4.62-1.56,9.56-2.4,14.7-2.4c1.11,0,2.21,0.05,3.3,0.13V93.16H180z"/>
		</g>
	</g>
	<g>
		<g>
			<circle class="st12" cx="194.651" cy="194.725" r="44.766"/>
		</g>
	</g>
	<g>
		<g>
			<path class="st0" d="M194.651,148.459c-25.511,0-46.266,20.755-46.266,46.266s20.755,46.266,46.266,46.266
				s46.266-20.755,46.266-46.266S220.162,148.459,194.651,148.459z M194.651,237.991c-23.856,0-43.266-19.409-43.266-43.266
				s19.409-43.266,43.266-43.266s43.266,19.409,43.266,43.266S218.508,237.991,194.651,237.991z"/>
		</g>
	</g>
	<g>
		<g>
			<path class="st2" d="M202.426,195.439l14.043-14.043c2.136-2.135,2.136-5.598,0-7.733c-2.134-2.136-5.599-2.136-7.733,0
				l-14.043,14.043l-14.043-14.043c-2.134-2.136-5.599-2.136-7.733,0c-2.136,2.135-2.136,5.598,0,7.733l14.043,14.043
				l-14.043,14.043c-2.136,2.135-2.136,5.598,0,7.733c1.067,1.068,2.467,1.602,3.866,1.602s2.799-0.534,3.866-1.602l14.043-14.043
				l14.043,14.043c1.067,1.068,2.467,1.602,3.866,1.602c1.399,0,2.799-0.534,3.866-1.602c2.136-2.135,2.136-5.598,0-7.733
				L202.426,195.439z"/>
		</g>
	</g>
	<g>
		<g>
			<path class="st0" d="M204.547,195.439l12.982-12.981c1.316-1.316,2.042-3.066,2.042-4.928c0-1.861-0.726-3.611-2.041-4.926
				c-1.315-1.317-3.065-2.042-4.928-2.042s-3.612,0.725-4.927,2.042l-12.982,12.982l-12.981-12.982
				c-1.315-1.317-3.065-2.042-4.928-2.042s-3.612,0.725-4.927,2.042c-1.316,1.316-2.041,3.065-2.041,4.927
				c0,1.862,0.725,3.611,2.041,4.927l12.982,12.982l-12.982,12.982c-1.316,1.316-2.041,3.066-2.041,4.927s0.725,3.611,2.04,4.926
				c1.315,1.317,3.065,2.042,4.928,2.042c1.863,0,3.613-0.725,4.927-2.042l12.982-12.982l12.981,12.981
				c1.314,1.317,3.064,2.042,4.928,2.042s3.613-0.725,4.927-2.041c1.316-1.316,2.042-3.065,2.042-4.927s-0.726-3.611-2.042-4.927
				L204.547,195.439z M215.407,216.155c-1.496,1.498-4.112,1.499-5.61-0.001l-14.043-14.042c-0.293-0.293-0.677-0.439-1.061-0.439
				s-0.768,0.146-1.061,0.439l-14.044,14.043c-1.496,1.498-4.112,1.5-5.61-0.001c-0.75-0.749-1.162-1.745-1.162-2.805
				s0.412-2.056,1.162-2.806l14.043-14.043c0.281-0.281,0.439-0.663,0.439-1.061s-0.158-0.779-0.439-1.061l-14.043-14.042
				c-0.75-0.75-1.162-1.746-1.162-2.806c0-1.06,0.412-2.056,1.163-2.806c1.496-1.499,4.112-1.5,5.61,0l14.043,14.043
				c0.586,0.586,1.535,0.586,2.121,0l14.044-14.043c1.496-1.499,4.112-1.5,5.61,0.001c0.75,0.75,1.163,1.746,1.163,2.805
				c0,1.06-0.413,2.056-1.163,2.806l-14.043,14.042c-0.281,0.281-0.439,0.663-0.439,1.061s0.158,0.779,0.439,1.061l14.043,14.043
				c0.75,0.749,1.163,1.746,1.163,2.805S216.158,215.405,215.407,216.155z"/>
		</g>
	</g>
</g>
</svg>
