<?xml version="1.0" encoding="utf-8"?>
<!-- Generator: Adobe Illustrator 22.0.1, SVG Export Plug-In . SVG Version: 6.00 Build 0)  -->
<svg version="1.1" id="Layer_1" xmlns="http://www.w3.org/2000/svg" xmlns:xlink="http://www.w3.org/1999/xlink" x="0px" y="0px"
	 viewBox="0 0 256 256" style="enable-background:new 0 0 256 256;" xml:space="preserve">
<style type="text/css">
	.st0{fill:#3A312A;}
	.st1{fill:#D6DF58;}
	.st2{fill:#87796F;}
	.st3{fill:#B9C239;}
	.st4{fill:#EF6D7A;}
	.st5{fill:#FCE8CB;}
	.st6{fill:#D5DE58;}
	.st7{fill:#D34E5C;}
	.st8{fill:#695B51;}
	.st9{fill:#8AC6DD;}
	.st10{fill:#D7E057;}
	.st11{fill:#B8C136;}
	.st12{fill:#F16C7A;}
	.st13{fill:#8AC2D9;}
	.st14{fill:#F7E3C7;}
	.st15{fill:#8AC3DA;}
	.st16{fill:#6DA3BC;}
	.st17{fill:#6A5C52;}
	.st18{fill:#D5DC57;}
	.st19{fill:#F6E2C6;}
	.st20{fill:#DBC7AA;}
	.st21{fill:#CE4E61;}
	.st22{fill:#FAE6CA;}
	.st23{fill:#8AC5DC;}
	.st24{fill:#DDC9AC;}
	.st25{fill:#DECAAD;}
	.st26{fill:#6CA6BE;}
	.st27{fill:#F8E4C8;}
	.st28{fill:#89C4DB;}
	.st29{fill:#ED6E7A;}
	.st30{fill:#D24E5C;}
	.st31{fill:#6DA4BD;}
	.st32{fill:#EB6E7A;}
	.st33{fill:#68A7BB;}
	.st34{fill:#B9BC37;}
	.st35{fill:#CC4E61;}
	.st36{fill:#6CA8BF;}
	.st37{fill-rule:evenodd;clip-rule:evenodd;fill:#D5DE58;}
	.st38{fill:#EA6D7A;}
	.st39{fill:#F4E0C4;}
	.st40{fill-rule:evenodd;clip-rule:evenodd;fill:#D6DF58;}
	.st41{fill-rule:evenodd;clip-rule:evenodd;fill:#F16C7A;}
	.st42{fill:#F3DEC3;}
	.st43{fill-rule:evenodd;clip-rule:evenodd;fill:#FAE6CA;}
	.st44{fill:#F59689;}
	.st45{fill-rule:evenodd;clip-rule:evenodd;fill:#F8E4C8;}
	.st46{fill-rule:evenodd;clip-rule:evenodd;fill:#FCE8CB;}
	.st47{fill:#F5978A;}
	.st48{fill:#D4DB56;}
	.st49{fill-rule:evenodd;clip-rule:evenodd;fill:#D4DA55;}
	.st50{fill-rule:evenodd;clip-rule:evenodd;fill:#EB6E7A;}
	.st51{fill:#68A6B9;}
	.st52{fill-rule:evenodd;clip-rule:evenodd;fill:#D5DC57;}
	.st53{fill:#8AC1D8;}
	.st54{fill:#F5E1C5;}
	.st55{fill:#D4D752;}
	.st56{fill:#D3D751;}
	.st57{fill:#D4D853;}
	.st58{fill:#E96C7A;}
	.st59{fill:#D4DA55;}
	.st60{fill:#8BC0D7;}
	.st61{fill:#87796F;stroke:#3A312A;stroke-width:3;stroke-linecap:round;stroke-linejoin:round;stroke-miterlimit:10;}
</style>
<g>
	<g>
		<g>
			<path class="st10" d="M233.37,63.67h-5.1v29.16h5.1c3.38,0,6.13-2.75,6.13-6.13V69.8C239.5,66.42,236.75,63.67,233.37,63.67z"/>
		</g>
	</g>
	<g>
		<g>
			<path class="st0" d="M233.37,62.17h-5.101c-0.828,0-1.5,0.671-1.5,1.5v29.16c0,0.829,0.672,1.5,1.5,1.5h5.101
				c4.207,0,7.63-3.423,7.63-7.63V69.8C241,65.593,237.577,62.17,233.37,62.17z M238,86.7c0,2.553-2.077,4.63-4.63,4.63h-3.601
				V65.17h3.601c2.553,0,4.63,2.077,4.63,4.63V86.7z"/>
		</g>
	</g>
	<g>
		<g>
			<path class="st29" d="M233.37,101.67h-5.1v29.16h5.1c3.38,0,6.13-2.75,6.13-6.13v-16.9C239.5,104.42,236.75,101.67,233.37,101.67
				z"/>
		</g>
	</g>
	<g>
		<g>
			<path class="st0" d="M233.37,100.17h-5.101c-0.828,0-1.5,0.671-1.5,1.5v29.16c0,0.829,0.672,1.5,1.5,1.5h5.101
				c4.207,0,7.63-3.423,7.63-7.63v-16.9C241,103.593,237.577,100.17,233.37,100.17z M238,124.7c0,2.553-2.077,4.63-4.63,4.63h-3.601
				v-26.16h3.601c2.553,0,4.63,2.077,4.63,4.63V124.7z"/>
		</g>
	</g>
	<g>
		<g>
			<path class="st9" d="M233.37,139.67h-5.1v29.16h5.1c3.38,0,6.13-2.75,6.13-6.13v-16.9C239.5,142.42,236.75,139.67,233.37,139.67z
				"/>
		</g>
	</g>
	<g>
		<g>
			<path class="st0" d="M233.37,138.17h-5.101c-0.828,0-1.5,0.671-1.5,1.5v29.16c0,0.829,0.672,1.5,1.5,1.5h5.101
				c4.207,0,7.63-3.423,7.63-7.63v-16.9C241,141.593,237.577,138.17,233.37,138.17z M238,162.7c0,2.553-2.077,4.63-4.63,4.63h-3.601
				v-26.16h3.601c2.553,0,4.63,2.077,4.63,4.63V162.7z"/>
		</g>
	</g>
	<g>
		<g>
			<path class="st2" d="M233.37,177.67h-5.1v29.16h5.1c3.38,0,6.13-2.75,6.13-6.13v-16.9C239.5,180.42,236.75,177.67,233.37,177.67z
				"/>
		</g>
	</g>
	<g>
		<g>
			<path class="st0" d="M233.37,176.17h-5.101c-0.828,0-1.5,0.671-1.5,1.5v29.16c0,0.829,0.672,1.5,1.5,1.5h5.101
				c4.207,0,7.63-3.423,7.63-7.63v-16.9C241,179.593,237.577,176.17,233.37,176.17z M238,200.7c0,2.553-2.077,4.63-4.63,4.63h-3.601
				v-26.16h3.601c2.553,0,4.63,2.077,4.63,4.63V200.7z"/>
		</g>
	</g>
	<g>
		<g>
			<path class="st10" d="M47.411,26.074c-0.974,11.564-13.025,13.389-13.025,13.389c10.347,0.487,12.925,14.059,12.925,14.059
				c0.221-9.677,13.321-14.202,13.321-14.202C50.819,38.733,47.411,26.074,47.411,26.074z"/>
		</g>
	</g>
	<g>
		<g>
			<path class="st0" d="M60.723,37.822c-8.604-0.514-11.832-12.024-11.863-12.14c-0.19-0.702-0.854-1.164-1.584-1.102
				c-0.725,0.066-1.298,0.642-1.359,1.367C45.057,36.163,34.603,37.911,34.162,37.98c-0.763,0.115-1.313,0.79-1.273,1.561
				c0.04,0.77,0.657,1.384,1.428,1.421c9.027,0.425,11.498,12.719,11.521,12.843c0.138,0.711,0.76,1.217,1.473,1.217
				c0.042,0,0.084-0.002,0.126-0.005c0.764-0.064,1.357-0.693,1.375-1.459c0.194-8.509,12.191-12.777,12.313-12.819
				c0.676-0.235,1.092-0.914,0.994-1.623C62.019,38.406,61.436,37.865,60.723,37.822z M47.156,48.169
				c-1.356-3.13-3.708-6.908-7.586-8.877c2.931-1.404,6.408-3.913,8.201-8.273c1.551,3.071,4.2,6.88,8.334,8.722
				C53.099,41.381,49.183,44.148,47.156,48.169z"/>
		</g>
	</g>
	<g>
		<g>
			<path class="st10" d="M25.712,43.054c-0.689,8.179-9.212,9.471-9.212,9.471c7.318,0.344,9.142,9.944,9.142,9.944
				c0.156-6.844,9.422-10.045,9.422-10.045C28.123,52.008,25.712,43.054,25.712,43.054z"/>
		</g>
	</g>
	<g>
		<g>
			<path class="st0" d="M35.154,50.926c-5.767-0.345-7.973-8.185-7.995-8.264c-0.19-0.702-0.861-1.166-1.581-1.102
				c-0.726,0.065-1.3,0.643-1.361,1.368c-0.578,6.87-7.646,8.066-7.941,8.113c-0.763,0.115-1.314,0.79-1.273,1.561
				c0.04,0.77,0.657,1.384,1.428,1.421c6.035,0.284,7.723,8.644,7.738,8.726c0.136,0.713,0.759,1.22,1.473,1.22
				c0.041,0,0.083-0.001,0.124-0.005c0.766-0.064,1.359-0.694,1.377-1.461c0.13-5.709,8.332-8.634,8.413-8.662
				c0.676-0.234,1.093-0.913,0.996-1.622C36.453,51.51,35.868,50.969,35.154,50.926z M25.569,57.721
				c-0.924-1.885-2.341-3.947-4.447-5.28c1.855-1.041,3.697-2.629,4.87-4.916c1.058,1.874,2.655,3.955,4.941,5.224
				C29.084,53.849,26.945,55.489,25.569,57.721z"/>
		</g>
	</g>
	<g>
		<g>
			<path class="st10" d="M25.712,16.396c-0.689,8.179-9.212,9.471-9.212,9.471c7.318,0.344,9.142,9.944,9.142,9.944
				c0.156-6.845,9.422-10.045,9.422-10.045C28.123,25.351,25.712,16.396,25.712,16.396z"/>
		</g>
	</g>
	<g>
		<g>
			<path class="st0" d="M35.154,24.269c-5.767-0.345-7.973-8.186-7.995-8.265c-0.19-0.702-0.861-1.164-1.581-1.102
				c-0.726,0.065-1.3,0.643-1.361,1.368c-0.578,6.871-7.646,8.067-7.941,8.114c-0.763,0.115-1.314,0.79-1.273,1.56
				c0.04,0.77,0.657,1.384,1.428,1.421c6.035,0.284,7.723,8.644,7.738,8.726c0.136,0.713,0.759,1.22,1.473,1.22
				c0.041,0,0.083-0.001,0.124-0.005c0.766-0.063,1.359-0.694,1.377-1.461c0.13-5.709,8.332-8.634,8.412-8.662
				c0.677-0.234,1.094-0.913,0.997-1.622C36.453,24.853,35.868,24.312,35.154,24.269z M25.569,31.064
				c-0.924-1.886-2.34-3.947-4.447-5.28c1.855-1.041,3.697-2.63,4.87-4.916c1.058,1.873,2.655,3.954,4.941,5.224
				C29.084,27.191,26.945,28.832,25.569,31.064z"/>
		</g>
	</g>
	<g>
		<g>
			<path class="st22" d="M210.467,31.854H88.572c-9.833,0-17.805,7.971-17.805,17.805v172.141c0,9.833,7.971,17.805,17.805,17.805
				h121.895c9.833,0,17.805-7.971,17.805-17.805V49.658C228.272,39.825,220.3,31.854,210.467,31.854z"/>
		</g>
	</g>
	<g>
		<g>
			<path class="st0" d="M210.467,30.354H88.571c-10.645,0-19.305,8.66-19.305,19.305v172.141c0,10.645,8.66,19.305,19.305,19.305
				h34.212c0.828,0,1.5-0.671,1.5-1.5s-0.672-1.5-1.5-1.5H88.571c-8.99,0-16.305-7.314-16.305-16.305V49.658
				c0-8.99,7.314-16.305,16.305-16.305h121.896c8.99,0,16.305,7.315,16.305,16.305v172.141c0,8.99-7.314,16.305-16.305,16.305
				h-74.916c-0.828,0-1.5,0.671-1.5,1.5s0.672,1.5,1.5,1.5h74.916c10.645,0,19.305-8.66,19.305-19.305V49.658
				C229.771,39.014,221.111,30.354,210.467,30.354z"/>
		</g>
	</g>
	<g>
		<g>
			<path class="st10" d="M194.445,67.825h-14.58h-13.731h-61.541c-3.62,0-6.555,2.935-6.555,6.555v27.065
				c0,3.62,2.935,6.555,6.555,6.555h89.852c3.62,0,6.555-2.935,6.555-6.555V74.38C201,70.76,198.065,67.825,194.445,67.825z"/>
		</g>
	</g>
	<g>
		<g>
			<path class="st0" d="M194.445,66.325h-14.58c-0.828,0-1.5,0.671-1.5,1.5c0,0.829,0.672,1.5,1.5,1.5h14.58
				c2.787,0,5.055,2.268,5.055,5.055v27.065c0,2.788-2.268,5.055-5.055,5.055h-89.852c-2.787,0-5.055-2.268-5.055-5.055V74.38
				c0-2.787,2.268-5.055,5.055-5.055h61.541c0.828,0,1.5-0.671,1.5-1.5c0-0.829-0.672-1.5-1.5-1.5h-61.541
				c-4.441,0-8.055,3.613-8.055,8.055v27.065c0,4.441,3.613,8.055,8.055,8.055h89.852c4.441,0,8.055-3.614,8.055-8.055V74.38
				C202.5,69.939,198.887,66.325,194.445,66.325z"/>
		</g>
	</g>
	<g>
		<g>
			<path class="st2" d="M81.017,204.979H59.735c-3.037,0-5.5,2.462-5.5,5.5v0.455c0,3.038,2.463,5.5,5.5,5.5h21.282
				c3.038,0,5.5-2.462,5.5-5.5v-0.455C86.517,207.441,84.055,204.979,81.017,204.979z"/>
		</g>
	</g>
	<g>
		<g>
			<path class="st0" d="M81.018,203.479H59.735c-3.859,0-7,3.14-7,7v0.455c0,3.86,3.141,7,7,7h21.282c3.859,0,7-3.14,7-7v-0.455
				C88.018,206.619,84.877,203.479,81.018,203.479z M85.018,210.934c0,2.206-1.794,4-4,4H59.735c-2.206,0-4-1.794-4-4v-0.455
				c0-2.206,1.794-4,4-4h21.282c2.206,0,4,1.794,4,4V210.934z"/>
		</g>
	</g>
	<g>
		<g>
			<path class="st2" d="M81.017,179.986H59.735c-3.037,0-5.5,2.463-5.5,5.5v0.455c0,3.038,2.463,5.5,5.5,5.5h21.282
				c3.038,0,5.5-2.462,5.5-5.5v-0.455C86.517,182.449,84.055,179.986,81.017,179.986z"/>
		</g>
	</g>
	<g>
		<g>
			<path class="st0" d="M81.018,178.486H59.735c-3.859,0-7,3.14-7,7v0.455c0,3.86,3.141,7,7,7h21.282c3.859,0,7-3.14,7-7v-0.455
				C88.018,181.627,84.877,178.486,81.018,178.486z M85.018,185.941c0,2.206-1.794,4-4,4H59.735c-2.206,0-4-1.794-4-4v-0.455
				c0-2.206,1.794-4,4-4h21.282c2.206,0,4,1.794,4,4V185.941z"/>
		</g>
	</g>
	<g>
		<g>
			<path class="st2" d="M81.017,154.994H59.735c-3.037,0-5.5,2.463-5.5,5.5v0.455c0,3.038,2.463,5.5,5.5,5.5h21.282
				c3.038,0,5.5-2.462,5.5-5.5v-0.455C86.517,157.456,84.055,154.994,81.017,154.994z"/>
		</g>
	</g>
	<g>
		<g>
			<path class="st0" d="M81.018,153.494H59.735c-3.859,0-7,3.14-7,7v0.455c0,3.86,3.141,7,7,7h21.282c3.859,0,7-3.14,7-7v-0.455
				C88.018,156.634,84.877,153.494,81.018,153.494z M85.018,160.949c0,2.206-1.794,4-4,4H59.735c-2.206,0-4-1.794-4-4v-0.455
				c0-2.206,1.794-4,4-4h21.282c2.206,0,4,1.794,4,4V160.949z"/>
		</g>
	</g>
	<g>
		<g>
			<path class="st2" d="M81.017,130.001H59.735c-3.037,0-5.5,2.462-5.5,5.5v0.455c0,3.038,2.463,5.5,5.5,5.5h21.282
				c3.038,0,5.5-2.462,5.5-5.5v-0.455C86.517,132.464,84.055,130.001,81.017,130.001z"/>
		</g>
	</g>
	<g>
		<g>
			<path class="st0" d="M81.018,128.501H59.735c-3.859,0-7,3.14-7,7v0.455c0,3.86,3.141,7,7,7h21.282c3.859,0,7-3.14,7-7v-0.455
				C88.018,131.641,84.877,128.501,81.018,128.501z M85.018,135.956c0,2.206-1.794,4-4,4H59.735c-2.206,0-4-1.794-4-4v-0.455
				c0-2.206,1.794-4,4-4h21.282c2.206,0,4,1.794,4,4V135.956z"/>
		</g>
	</g>
	<g>
		<g>
			<path class="st2" d="M81.017,105.009H59.735c-3.037,0-5.5,2.462-5.5,5.5v0.455c0,3.037,2.463,5.5,5.5,5.5h21.282
				c3.038,0,5.5-2.463,5.5-5.5v-0.455C86.517,107.471,84.055,105.009,81.017,105.009z"/>
		</g>
	</g>
	<g>
		<g>
			<path class="st0" d="M81.018,103.509H59.735c-3.859,0-7,3.14-7,7v0.455c0,3.86,3.141,7,7,7h21.282c3.859,0,7-3.14,7-7v-0.455
				C88.018,106.649,84.877,103.509,81.018,103.509z M85.018,110.963c0,2.206-1.794,4-4,4H59.735c-2.206,0-4-1.794-4-4v-0.455
				c0-2.206,1.794-4,4-4h21.282c2.206,0,4,1.794,4,4V110.963z"/>
		</g>
	</g>
	<g>
		<g>
			<path class="st2" d="M81.017,80.016H59.735c-3.037,0-5.5,2.462-5.5,5.5v0.455c0,3.037,2.463,5.5,5.5,5.5h21.282
				c3.038,0,5.5-2.463,5.5-5.5v-0.455C86.517,82.479,84.055,80.016,81.017,80.016z"/>
		</g>
	</g>
	<g>
		<g>
			<path class="st0" d="M81.018,78.516H59.735c-3.859,0-7,3.14-7,7v0.455c0,3.86,3.141,7,7,7h21.282c3.859,0,7-3.14,7-7v-0.455
				C88.018,81.656,84.877,78.516,81.018,78.516z M85.018,85.971c0,2.206-1.794,4-4,4H59.735c-2.206,0-4-1.794-4-4v-0.455
				c0-2.206,1.794-4,4-4h21.282c2.206,0,4,1.794,4,4V85.971z"/>
		</g>
	</g>
	<g>
		<g>
			<path class="st2" d="M81.017,55.024H59.735c-3.037,0-5.5,2.462-5.5,5.5v0.455c0,3.038,2.463,5.5,5.5,5.5h21.282
				c3.038,0,5.5-2.462,5.5-5.5v-0.455C86.517,57.486,84.055,55.024,81.017,55.024z"/>
		</g>
	</g>
	<g>
		<g>
			<path class="st0" d="M81.018,53.524H59.735c-3.859,0-7,3.14-7,7v0.455c0,3.86,3.141,7,7,7h21.282c3.859,0,7-3.14,7-7v-0.455
				C88.018,56.664,84.877,53.524,81.018,53.524z M85.018,60.979c0,2.206-1.794,4-4,4H59.735c-2.206,0-4-1.794-4-4v-0.455
				c0-2.206,1.794-4,4-4h21.282c2.206,0,4,1.794,4,4V60.979z"/>
		</g>
	</g>
	<g>
		<g>
			<path class="st25" d="M210.47,33.35h-16c8.99,0,16.3,7.32,16.3,16.31V221.8c0,8.99-7.31,16.3-16.3,16.3h16
				c8.99,0,16.3-7.31,16.3-16.3V49.66C226.77,40.67,219.46,33.35,210.47,33.35z"/>
		</g>
	</g>
</g>
</svg>
