<?xml version="1.0" encoding="utf-8"?>
<!-- Generator: Adobe Illustrator 22.0.1, SVG Export Plug-In . SVG Version: 6.00 Build 0)  -->
<svg version="1.1" id="Layer_1" xmlns="http://www.w3.org/2000/svg" xmlns:xlink="http://www.w3.org/1999/xlink" x="0px" y="0px"
	 viewBox="0 0 256 256" style="enable-background:new 0 0 256 256;" xml:space="preserve">
<style type="text/css">
	.st0{fill:#3A312A;}
	.st1{fill:#D6DF58;}
	.st2{fill:#87796F;}
	.st3{fill:#B9C239;}
	.st4{fill:#EF6D7A;}
	.st5{fill:#FCE8CB;}
	.st6{fill:#D5DE58;}
	.st7{fill:#D34E5C;}
	.st8{fill:#695B51;}
	.st9{fill:#8AC6DD;}
	.st10{fill:#D7E057;}
	.st11{fill:#B8C136;}
	.st12{fill:#F16C7A;}
	.st13{fill:#8AC2D9;}
	.st14{fill:#F7E3C7;}
	.st15{fill:#8AC3DA;}
	.st16{fill:#6DA3BC;}
	.st17{fill:#6A5C52;}
	.st18{fill:#D5DC57;}
	.st19{fill:#F6E2C6;}
	.st20{fill:#DBC7AA;}
	.st21{fill:#CE4E61;}
	.st22{fill:#FAE6CA;}
	.st23{fill:#8AC5DC;}
	.st24{fill:#DDC9AC;}
	.st25{fill:#DECAAD;}
	.st26{fill:#6CA6BE;}
	.st27{fill:#F8E4C8;}
	.st28{fill:#89C4DB;}
	.st29{fill:#ED6E7A;}
	.st30{fill:#D24E5C;}
	.st31{fill:#6DA4BD;}
	.st32{fill:#EB6E7A;}
	.st33{fill:#68A7BB;}
	.st34{fill:#B9BC37;}
	.st35{fill:#CC4E61;}
	.st36{fill:#6CA8BF;}
	.st37{fill-rule:evenodd;clip-rule:evenodd;fill:#D5DE58;}
	.st38{fill:#EA6D7A;}
	.st39{fill:#F4E0C4;}
	.st40{fill-rule:evenodd;clip-rule:evenodd;fill:#D6DF58;}
	.st41{fill-rule:evenodd;clip-rule:evenodd;fill:#F16C7A;}
	.st42{fill:#F3DEC3;}
	.st43{fill-rule:evenodd;clip-rule:evenodd;fill:#FAE6CA;}
	.st44{fill:#F59689;}
	.st45{fill-rule:evenodd;clip-rule:evenodd;fill:#F8E4C8;}
	.st46{fill-rule:evenodd;clip-rule:evenodd;fill:#FCE8CB;}
	.st47{fill:#F5978A;}
	.st48{fill:#D4DB56;}
	.st49{fill-rule:evenodd;clip-rule:evenodd;fill:#D4DA55;}
	.st50{fill-rule:evenodd;clip-rule:evenodd;fill:#EB6E7A;}
	.st51{fill:#68A6B9;}
	.st52{fill-rule:evenodd;clip-rule:evenodd;fill:#D5DC57;}
	.st53{fill:#8AC1D8;}
	.st54{fill:#F5E1C5;}
	.st55{fill:#D4D752;}
	.st56{fill:#D3D751;}
	.st57{fill:#D4D853;}
	.st58{fill:#E96C7A;}
	.st59{fill:#D4DA55;}
	.st60{fill:#8BC0D7;}
	.st61{fill:#87796F;stroke:#3A312A;stroke-width:3;stroke-linecap:round;stroke-linejoin:round;stroke-miterlimit:10;}
</style>
<g>
	<g>
		<g>
			<path class="st2" d="M234.933,215.981l-76.97-76.97c-2.537,3.623-5.425,7.07-8.653,10.298s-6.676,6.116-10.298,8.653
				l36.616,36.616l9.269,9.269l31.085,31.085c5.233,5.233,13.718,5.233,18.951,0C240.166,229.699,240.166,221.215,234.933,215.981z"
				/>
		</g>
	</g>
	<g>
		<g>
			<path class="st0" d="M235.993,214.921l-76.97-76.97c-0.313-0.313-0.752-0.474-1.191-0.434c-0.442,0.038-0.844,0.271-1.098,0.634
				c-2.502,3.571-5.357,6.969-8.485,10.098c-3.127,3.128-6.524,5.982-10.098,8.485c-0.363,0.254-0.595,0.656-0.634,1.098
				c-0.039,0.442,0.12,0.878,0.434,1.191l36.616,36.616c0.586,0.586,1.535,0.586,2.121,0c0.586-0.586,0.586-1.535,0-2.121
				l-35.367-35.367c3.187-2.345,6.224-4.956,9.049-7.781c2.826-2.826,5.438-5.863,7.781-9.049l75.721,75.721
				c2.247,2.248,3.486,5.236,3.486,8.415s-1.238,6.167-3.486,8.415c-2.248,2.248-5.236,3.485-8.416,3.485
				c-3.179,0-6.167-1.237-8.415-3.485l-31.085-31.085c-0.586-0.586-1.535-0.586-2.121,0c-0.586,0.586-0.586,1.535,0,2.121
				l31.085,31.085c2.815,2.814,6.556,4.364,10.536,4.364c3.981,0,7.722-1.55,10.537-4.364c2.814-2.814,4.365-6.556,4.365-10.536
				S238.808,217.735,235.993,214.921z"/>
		</g>
	</g>
	<g>
		<g>
			<path class="st1" d="M171.962,130.839l-6.09-6.09c-3.762,8.925-9.292,17.289-16.563,24.56
				c-7.271,7.271-15.635,12.801-24.56,16.563l6.09,6.09c4.331,4.331,11.366,4.331,15.697,0l25.426-25.426
				C176.293,142.205,176.293,135.17,171.962,130.839z"/>
		</g>
	</g>
	<g>
		<g>
			<path class="st0" d="M173.023,129.779l-6.09-6.09c-0.352-0.353-0.858-0.51-1.349-0.411c-0.49,0.096-0.9,0.429-1.094,0.889
				c-3.792,8.995-9.256,17.098-16.241,24.082c-6.984,6.984-15.086,12.449-24.082,16.242c-0.46,0.193-0.794,0.604-0.89,1.094
				s0.059,0.996,0.412,1.349l6.089,6.089c2.457,2.457,5.682,3.685,8.909,3.685c3.226,0,6.453-1.229,8.909-3.685l25.426-25.426
				C177.935,142.685,177.935,134.691,173.023,129.779z M170.902,145.476l-25.426,25.426c-1.811,1.812-4.222,2.809-6.788,2.809
				c-2.566,0-4.977-0.997-6.788-2.809l-4.537-4.536c8.546-3.891,16.277-9.265,23.007-15.995c6.732-6.73,12.104-14.461,15.995-23.007
				l4.537,4.537c1.811,1.812,2.809,4.222,2.809,6.787C173.711,141.254,172.713,143.664,170.902,145.476z"/>
		</g>
	</g>
	<g>
		<g>
			<circle class="st4" cx="94.562" cy="94.562" r="77.42"/>
		</g>
	</g>
	<g>
		<g>
			<path class="st0" d="M150.367,38.758c-30.771-30.771-80.838-30.771-111.61,0C23.851,53.664,15.642,73.482,15.642,94.563
				s8.209,40.898,23.115,55.805c15.386,15.386,35.596,23.078,55.805,23.078c20.21,0,40.42-7.692,55.805-23.078
				c14.906-14.906,23.115-34.725,23.115-55.805S165.273,53.664,150.367,38.758z M148.247,148.246
				c-29.601,29.602-77.766,29.602-107.368,0c-29.601-29.602-29.601-77.766,0-107.367c14.801-14.801,34.243-22.201,53.684-22.201
				s38.883,7.4,53.684,22.201c14.339,14.34,22.237,33.404,22.237,53.684S162.586,133.906,148.247,148.246z"/>
		</g>
	</g>
	<g>
		<g>
			<path class="st19" d="M135.33,53.796c-20.907-20.907-53.868-22.387-76.498-4.467l-9.328,9.276
				c-18.109,22.635-16.685,55.749,4.291,76.724c22.515,22.515,59.019,22.515,81.534,0C157.845,112.815,157.845,76.31,135.33,53.796z
				"/>
		</g>
	</g>
	<g>
		<g>
			<path class="st0" d="M136.39,52.735c-21.231-21.231-54.974-23.203-78.489-4.583c-0.649,0.514-0.759,1.457-0.245,2.107
				c0.514,0.648,1.458,0.759,2.107,0.244c22.32-17.675,54.351-15.804,74.506,4.353c10.606,10.605,16.447,24.707,16.447,39.706
				s-5.841,29.101-16.447,39.707c-21.894,21.894-57.518,21.893-79.413-0.001c-20.258-20.258-22.055-52.384-4.18-74.727
				c0.518-0.647,0.413-1.591-0.234-2.108c-0.646-0.518-1.59-0.413-2.108,0.233c-18.831,23.539-16.939,57.383,4.402,78.723
				c11.533,11.533,26.678,17.3,41.828,17.299c15.146-0.002,30.296-5.768,41.827-17.298c11.173-11.173,17.326-26.027,17.326-41.828
				C153.716,78.763,147.563,63.907,136.39,52.735z"/>
		</g>
	</g>
	<g>
		<g>
			<path class="st1" d="M46.411,204.631c-0.922,10.875-12.332,12.592-12.332,12.592c9.797,0.458,12.238,13.222,12.238,13.222
				c0.209-9.101,12.613-13.356,12.613-13.356C49.638,216.536,46.411,204.631,46.411,204.631z"/>
		</g>
	</g>
	<g>
		<g>
			<path class="st0" d="M59.019,215.591c-8.071-0.479-11.117-11.195-11.161-11.354c-0.19-0.701-0.855-1.163-1.582-1.101
				c-0.725,0.065-1.298,0.643-1.36,1.367c-0.808,9.535-10.646,11.171-11.06,11.235c-0.763,0.115-1.315,0.79-1.275,1.561
				c0.039,0.771,0.657,1.385,1.428,1.421c8.485,0.397,10.813,11.892,10.835,12.006c0.136,0.712,0.759,1.218,1.472,1.218
				c0.042,0,0.083-0.002,0.126-0.005c0.764-0.063,1.357-0.693,1.375-1.461c0.183-7.937,11.488-11.933,11.602-11.973
				c0.677-0.233,1.095-0.913,0.997-1.622C60.318,216.175,59.734,215.633,59.019,215.591z M46.175,225.222
				c-1.281-2.885-3.458-6.307-6.993-8.158c2.718-1.325,5.886-3.641,7.577-7.589c1.464,2.833,3.914,6.28,7.688,8.018
				C51.65,219.03,48.088,221.569,46.175,225.222z"/>
		</g>
	</g>
	<g>
		<g>
			<path class="st1" d="M25.865,220.6c-0.652,7.692-8.723,8.906-8.723,8.906c6.929,0.324,8.656,9.352,8.656,9.352
				c0.148-6.437,8.921-9.446,8.921-9.446C28.148,229.021,25.865,220.6,25.865,220.6z"/>
		</g>
	</g>
	<g>
		<g>
			<path class="st0" d="M34.809,227.914c-5.402-0.321-7.477-7.636-7.497-7.71c-0.191-0.7-0.863-1.167-1.581-1.099
				c-0.725,0.065-1.298,0.643-1.36,1.367c-0.542,6.389-7.175,7.506-7.452,7.55c-0.763,0.115-1.314,0.79-1.275,1.561
				s0.657,1.385,1.428,1.421c5.652,0.265,7.239,8.06,7.254,8.136c0.136,0.712,0.759,1.218,1.472,1.218
				c0.042,0,0.083-0.002,0.125-0.005c0.764-0.063,1.357-0.694,1.375-1.461c0.122-5.304,7.833-8.035,7.909-8.062
				c0.678-0.232,1.096-0.912,1-1.622C36.11,228.499,35.524,227.956,34.809,227.914z M25.738,234.227
				c-0.862-1.713-2.157-3.561-4.051-4.795c1.69-0.967,3.354-2.411,4.447-4.458c0.986,1.704,2.445,3.566,4.503,4.746
				C28.941,230.739,27.018,232.227,25.738,234.227z"/>
		</g>
	</g>
	<g>
		<g>
			<path class="st1" d="M25.865,195.53c-0.652,7.692-8.723,8.906-8.723,8.906c6.929,0.324,8.656,9.352,8.656,9.352
				c0.148-6.437,8.921-9.447,8.921-9.447C28.148,203.951,25.865,195.53,25.865,195.53z"/>
		</g>
	</g>
	<g>
		<g>
			<path class="st0" d="M34.809,202.845c-5.402-0.321-7.477-7.636-7.497-7.71c-0.191-0.7-0.863-1.166-1.581-1.099
				c-0.725,0.065-1.298,0.643-1.36,1.367c-0.542,6.39-7.174,7.506-7.452,7.55c-0.763,0.115-1.314,0.79-1.275,1.561
				s0.657,1.385,1.428,1.421c5.652,0.265,7.239,8.06,7.254,8.136c0.136,0.712,0.759,1.218,1.472,1.218
				c0.042,0,0.083-0.002,0.125-0.005c0.764-0.063,1.357-0.694,1.375-1.461c0.122-5.304,7.833-8.035,7.909-8.062
				c0.678-0.232,1.096-0.912,1-1.622C36.11,203.43,35.524,202.887,34.809,202.845z M25.738,209.157
				c-0.862-1.713-2.157-3.56-4.05-4.795c1.69-0.967,3.354-2.411,4.447-4.457c0.985,1.703,2.444,3.565,4.502,4.745
				C28.941,205.67,27.018,207.157,25.738,209.157z"/>
		</g>
	</g>
	<g>
		<g>
			<path class="st20" d="M134.272,54.852c-10.61-10.6-24.71-16.44-39.71-16.44c-2.53,0-5.03,0.17-7.5,0.49
				c12.15,1.61,23.39,7.14,32.21,15.95c21.89,21.9,21.89,57.52,0,79.42c-9.04,9.04-20.42,14.35-32.21,15.92
				c2.49,0.33,4.99,0.5,7.5,0.5c14.38,0,28.76-5.47,39.71-16.42C156.162,112.372,156.162,76.752,134.272,54.852z"/>
		</g>
	</g>
	<g>
		<g>
			<path class="st2" d="M95.031,113.905c-3.607,0-6.532,2.924-6.532,6.531c0,3.607,2.924,6.532,6.532,6.532s6.531-2.924,6.531-6.532
				C101.562,116.829,98.638,113.905,95.031,113.905z"/>
		</g>
	</g>
	<g>
		<g>
			<path class="st0" d="M95.031,112.404c-4.429,0-8.032,3.604-8.032,8.032s3.603,8.031,8.032,8.031c4.428,0,8.031-3.603,8.031-8.031
				S99.459,112.404,95.031,112.404z M95.031,125.468c-2.775,0-5.032-2.257-5.032-5.031s2.257-5.032,5.032-5.032
				c2.774,0,5.031,2.258,5.031,5.032S97.805,125.468,95.031,125.468z"/>
		</g>
	</g>
	<g>
		<g>
			<path class="st2" d="M115.438,113.905c-3.607,0-6.532,2.924-6.532,6.531c0,3.607,2.924,6.532,6.532,6.532
				s6.532-2.924,6.532-6.532C121.97,116.829,119.046,113.905,115.438,113.905z"/>
		</g>
	</g>
	<g>
		<g>
			<path class="st0" d="M115.438,112.404c-4.428,0-8.031,3.604-8.031,8.032s3.603,8.031,8.031,8.031
				c4.429,0,8.032-3.603,8.032-8.031S119.867,112.404,115.438,112.404z M115.438,125.468c-2.774,0-5.031-2.257-5.031-5.031
				s2.257-5.032,5.031-5.032s5.032,2.258,5.032,5.032S118.212,125.468,115.438,125.468z"/>
		</g>
	</g>
	<g>
		<g>
			<path class="st13" d="M125.19,76.472H77.734l7.508,29.703h31.618c0.877,0,1.654-0.565,1.925-1.399l8.33-25.655
				C127.539,77.813,126.565,76.472,125.19,76.472z"/>
		</g>
	</g>
	<g>
		<g>
			<path class="st0" d="M128.041,76.425c-0.671-0.924-1.71-1.453-2.851-1.453H77.733c-0.462,0-0.899,0.214-1.184,0.578
				c-0.284,0.365-0.384,0.841-0.271,1.289l7.508,29.703c0.168,0.666,0.767,1.133,1.454,1.133h31.618
				c1.532,0,2.879-0.979,3.352-2.437l8.33-25.653C128.894,78.499,128.711,77.348,128.041,76.425z M125.688,78.658l-8.33,25.654
				c-0.07,0.217-0.271,0.362-0.499,0.362h-30.45l-6.75-26.703h45.53c0.232,0,0.366,0.136,0.424,0.216
				C125.672,78.269,125.76,78.437,125.688,78.658z"/>
		</g>
	</g>
	<g>
		<g>
			<path class="st0" d="M124.435,111.087H88.522L76.368,63.01c-0.225-0.888-1.023-1.51-1.939-1.51H60.496c-1.104,0-2,0.896-2,2
				s0.896,2,2,2h12.376l12.154,48.077c0.225,0.888,1.023,1.51,1.939,1.51h37.47c1.104,0,2-0.896,2-2
				S125.539,111.087,124.435,111.087z"/>
		</g>
	</g>
</g>
</svg>
